<svg width="221" height="70" viewBox="0 0 221 70" fill="none" xmlns="http://www.w3.org/2000/svg">
<path d="M13.1727 15.1193C13.1853 17.4225 13.1537 20.3659 13.1321 22.876C13.1244 23.1684 13.1394 23.4375 13.1724 23.6861C13.2581 24.2023 13.0454 23.986 13.1318 24.3507C13.3299 25.0642 13.8 25.6294 14.3732 26.3174C14.5686 26.5478 14.1275 26.4517 14.3452 26.694C15.2054 27.6343 16.365 28.3925 17.6566 29.3418C18.0748 29.653 18.5157 29.9248 18.9862 30.1627C21.6125 31.5313 25.1495 31.1484 28.675 30.4075C30.9325 29.9512 33.2403 28.1406 35.6798 26.3937C36.3559 25.9063 36.5424 25.6297 36.7711 24.8543C36.9707 24.1085 37.0269 23.153 37.0169 22.1792C36.9858 20.1856 36.7182 18.0825 36.2991 16.0546C35.8777 14.0821 35.2955 11.7227 34.2094 10.1284C33.4536 9.04284 32.4697 8.64774 31.3175 8.86747C30.9959 8.93356 31.2293 9.11067 31.172 9.13847C30.316 9.6317 30.4991 9.14631 29.8235 9.36471C29.4608 9.49954 29.093 9.67476 28.7331 9.88145C26.36 11.1871 24.7424 13.7723 24.1434 16.3365C23.8504 17.6066 24.5719 16.4348 24.0488 17.6589C24.0142 17.7459 23.8614 17.371 23.7635 17.7224C23.6942 17.9744 23.6237 18.3056 23.5587 18.6653C23.4192 19.4096 23.3653 20.2534 23.3398 20.677C23.2788 21.8715 23.295 22.0736 23.4274 23.1951C23.6224 24.724 24.0922 26.5469 24.9131 28.0453C25.0879 28.3628 25.0753 27.8339 25.375 28.323C25.5326 28.578 25.8078 29.0624 26.0863 29.5272C26.2829 29.8645 26.512 30.1409 26.6302 30.2888C26.8831 30.5944 26.648 30.6206 26.6752 30.7007C26.9233 31.4511 28.684 31.5466 28.8768 31.531C30.7369 31.8288 32.7179 31.7197 34.7257 31.7691C36.6843 31.8055 38.6784 31.6958 40.7313 31.4298C41.9605 31.2678 43.2189 31.0519 44.4632 30.7974C46.3045 30.4207 48.1221 29.9303 49.8018 29.4384C51.263 29.0098 52.622 28.578 53.9268 28.0994C55.5629 27.4979 57.0772 26.713 58.5048 25.5701C58.7715 25.3546 58.29 25.3925 58.6091 25.1295C59.5347 24.3587 60.3928 23.4853 61.2471 22.5545C62.9035 20.7553 64.0535 18.4628 64.5549 16.0491C64.6564 15.5812 64.6453 15.0788 64.5251 14.5481C64.4348 14.1821 64.8104 14.5853 64.7222 14.2005C64.2 11.7168 60.8312 8.20484 58.9018 8.01616C58.7023 7.84823 58.4956 7.67713 58.2825 7.50295C57.2017 6.60158 55.3756 5.95503 54.0166 5.41786C52.983 5.02265 54.0868 5.01528 52.7326 4.82031C52.4264 4.7794 52.7689 5.08639 52.3147 5.00995C50.725 4.74594 48.9993 4.42435 47.3395 4.21113C47.0416 4.17413 46.7481 4.15852 46.4629 4.16596C46.1191 4.17903 46.2123 4.38953 46.1187 4.42526C45.3732 4.68881 44.0305 4.53886 43.6993 4.63744C42.919 4.81677 42.2043 5.1209 41.4894 5.44188C40.3463 5.94752 39.5618 6.90056 38.7192 8.17894C38.4221 8.63356 39.0009 8.24348 38.7263 8.68725C38.6871 8.75106 38.648 8.8151 38.6086 8.87985C37.7089 10.3366 37.6305 12.4135 38.1986 14.1585C38.3084 14.5043 38.481 14.801 38.744 15.0882C39.0629 15.4134 38.5911 15.3079 38.7495 15.4779C39.2152 15.9356 39.6436 15.9984 40.1211 16.181C40.3219 16.2262 40.5334 16.2741 40.9117 16.4102C41.115 16.4793 40.9539 16.6464 40.9876 16.677C41.5712 17.1589 42.2815 16.7186 42.4531 16.7243C43.2368 16.739 43.9465 16.7905 44.6242 16.8686C45.9282 17.0166 47.1243 17.2114 48.6549 17.0667C48.9298 17.0389 48.2932 16.829 49.0644 16.7644C51.6969 16.5332 54.3994 16.1018 57.0855 15.5704C59.6465 15.0596 62.1666 14.4849 64.4849 13.6582C65.2195 13.3858 64.7795 13.776 64.8335 13.7793C65.7295 13.7994 65.9814 13.1105 66.189 12.9776C66.9919 12.4695 67.7859 11.9907 68.1782 11.4273C68.3138 11.2086 68.2819 11.2526 68.2458 11.1739C68.159 11.0251 67.7757 10.7537 67.4432 10.7149C67.4268 10.7282 67.4037 10.7398 67.3766 10.7524C65.9066 10.2135 63.1458 10.5533 60.943 10.8516C56.7094 11.581 53.2221 15.2151 49.6543 18.1889C48.4094 19.2582 47.2402 20.4514 46.1018 21.6845C46.0275 21.7661 45.9647 21.4596 45.8169 21.6238C44.0581 23.6241 44.6821 23.4671 44.0228 25.1484C44.005 25.1949 43.9746 25.2453 43.9345 25.2985C43.6074 25.724 42.644 26.3605 42.5568 26.4326C42.1957 26.7123 42.1377 26.1405 42.0343 26.2462C41.1917 27.149 42.2933 27.604 41.5189 28.9785C41.4931 29.0213 41.4017 28.7324 41.3181 28.839C41.0573 29.1713 40.9425 29.5777 40.6932 29.9079C40.1479 30.6382 39.4895 30.7328 39.2349 32.0676C39.2264 32.1141 39.2185 32.1621 39.2113 32.2117C39.1906 32.3988 39.8976 32.3821 39.3948 33.7026C39.1764 34.2236 38.4894 36.6423 38.2991 37.3286C38.0921 38.0077 37.9929 37.4847 37.9719 37.5313C37.2641 39.3423 37.3127 38.6084 36.6965 39.4755C36.6413 39.5548 36.5998 39.6265 36.5701 39.6915C36.2734 40.3472 37.1432 40.3154 37.1802 40.6844C37.2161 41.0892 36.7656 42.4421 36.6445 42.7789C36.5182 43.1128 36.4359 42.6654 36.3505 42.9662C35.8155 44.9841 36.752 43.9142 36.8468 44.5963C37.1015 46.1788 36.3245 47.3624 36.3444 48.8283C36.3538 49.2223 36.4992 48.8892 36.5444 49.2333C36.675 50.168 36.6859 50.8585 36.8991 51.6677C36.9966 52.0268 37.1403 52.4052 37.3821 52.8046C37.5098 53.0482 38.4062 53.8257 38.6789 54.5079C38.7238 54.6124 38.3628 54.5482 38.7417 54.9359C38.9482 55.1336 39.2524 55.3631 39.6017 55.4779C40.2701 55.6999 41.1448 55.6116 41.7185 55.4622C42.3749 55.2792 41.5529 55.1482 42.3963 55.0451C42.7742 54.9878 42.1346 55.3504 42.8511 55.2191C43.5726 55.1005 45.3152 54.4008 45.961 54.0879C46.6075 53.7865 46.1545 53.7351 46.2001 53.6973C46.4785 53.4754 47.654 52.7726 47.7576 52.7163C49.1467 52.0043 50.5027 51.2794 51.8417 50.5554C54.6349 49.1372 56.2249 46.1751 56.494 42.9858C56.5189 42.7549 56.4488 42.6062 56.2247 42.3366C55.9335 42.0394 55.1095 41.7678 54.4395 41.5865C53.9968 41.4695 54.2232 41.7915 54.1549 41.776C52.6202 41.4802 53.9798 41.1494 52.9439 40.6761C52.9883 41.2014 52.3722 40.9587 51.2558 40.7986C50.7174 40.7229 50.9724 40.9694 50.9197 40.9794C50.2419 41.0936 49.7972 40.8121 49.5794 40.6451C49.5309 40.6059 49.4944 40.5736 49.4706 40.5546C49.0022 40.1888 48.4055 40.4879 48.065 40.2897C47.709 40.0962 48.5535 39.8151 47.461 39.821C47.1676 40.0081 47.9564 40.4545 47.1681 40.5547C45.1224 40.7961 41.8267 41.5621 39.1526 42.2446C38.0034 42.5284 37.0068 42.8803 36.3159 43.1736C34.078 44.1617 33.4401 44.6613 32.197 45.3786C30.2312 46.5912 30.7975 46.5489 30.1021 47.2659C30.0174 47.3564 29.9152 47.4594 29.7879 47.5824C28.6897 48.6914 28.7142 47.5765 28.4165 47.5834C28.1205 47.6009 28.061 47.9127 27.7841 48.0401C27.5062 48.1706 27.8689 47.6385 27.3533 48.0942C26.8153 48.5439 25.8699 50.1992 25.9024 50.5091C25.9409 51.1577 26.7311 50.734 25.6481 52.072C25.5868 52.1508 25.5729 51.7562 25.347 52.0665C25.1729 52.3091 25.0046 52.5575 24.8424 52.811C23.9897 54.1331 24.213 56.0225 24.6164 57.6895C24.8319 58.5904 25.9181 59.11 26.8559 59.5194C27.2476 59.6842 26.8051 59.7907 27.0356 59.8889C27.9664 60.2727 28.4338 60.3771 28.7337 60.3897C29.218 60.3929 29.2704 60.1423 30.1375 59.9907C29.7287 60.5468 30.4577 61.1135 32.4635 61.1919C33.6604 61.2293 33.4567 60.9463 34.2237 60.7586C34.4519 60.7021 35.2937 60.8801 35.4423 60.7483C35.9356 60.3175 35.1381 59.8765 37.1598 60.0022C37.2489 60.0081 36.9736 60.2468 37.2815 60.2501C38.9413 60.2647 39.3657 59.9473 40.7078 59.7493C40.9608 59.7103 41.2431 59.6707 41.5709 59.6245C42.6891 59.4826 44.3055 59.2072 45.6662 58.3516C45.9671 58.226 46.1801 57.7248 46.2651 57.2243C46.608 57.3043 46.8059 56.8975 46.8387 56.3575C46.8822 55.8462 46.5349 55.2897 46.1831 55.0969C45.8145 54.1962 45.0787 53.312 44.4014 52.5061C44.3115 52.399 44.2192 52.2935 44.1266 52.1909C43.8619 51.9044 44.185 51.9338 44.165 51.8839C43.8183 51.0898 43.0723 51.1512 42.8582 51.0236C40.4207 49.6226 38.2892 48.5122 35.5708 47.921C35.472 47.9009 35.1684 48.3096 34.5807 47.7392C34.5468 47.7045 35.3077 47.7654 34.5505 47.463C34.4709 47.4312 34.3725 47.3952 34.2519 47.3551C33.0402 46.9377 30.7091 46.088 28.8873 45.9554C28.4459 45.9195 27.2907 46.0967 26.4718 45.641C26.3623 45.5792 26.5142 45.4639 26.3588 45.358C25.8543 45.0196 25.4768 45.4554 24.9001 44.941C24.6104 44.6837 24.1382 44.4257 23.5046 44.2424C22.8681 44.0591 22.0575 43.9597 21.1245 44.0474C21.0643 44.0525 20.6098 44.4137 20.0368 44.3951C19.12 44.3593 17.8115 44.3257 16.8553 44.4375C16.3979 44.4903 16.7193 44.6981 16.6406 44.7114C14.4921 45.0727 12.8061 45.4557 10.8977 46.0966C10.1397 46.3533 9.37391 46.7483 8.61089 47.3117C8.09643 47.6593 7.10309 49.0854 6.18606 49.8385C5.17492 50.6751 4.99649 48.8766 3.46532 51.4997C3.39323 51.6262 3.33499 51.7685 3.28601 51.9218C2.81062 53.2417 3.33065 54.8333 2.29311 56.5337C1.97855 58.7062 1.84092 60.7912 1.76838 62.886C1.69517 64.3436 2.07926 66.0133 3.23844 67.0768C3.61183 67.4543 4.0826 67.7222 4.57445 67.8836C4.77181 67.9575 5.45001 67.7247 5.85786 67.7852C6.47965 67.886 6.82849 68.0864 7.29786 68.1003C9.2686 68.1265 11.011 67.5881 12.8533 67.1915C13.5536 67.0337 13.3581 67.292 14.1939 67.0928C14.4904 67.0211 14.7414 66.9232 14.9958 66.8184C15.4603 66.6262 15.9144 66.413 16.6495 66.2536C17.5066 66.065 18.5392 66.2579 19.6571 65.7946C19.4613 65.2831 20.211 64.9677 21.3556 64.1067C21.5744 63.9396 21.2262 63.9332 21.3239 63.8462C21.7139 63.4909 22.1992 63.3538 22.5413 62.9791C22.6238 62.8887 22.5208 62.7353 22.5807 62.653C23.0851 61.9619 24.3696 61.3956 24.5937 61.278C25.4475 60.861 25.5764 60.3795 26.1289 59.9465C26.6796 59.5045 26.0751 60.3689 26.6749 59.8052C26.6865 59.7941 26.6981 59.7831 26.7097 59.772C27.3211 59.2438 27.6025 58.2022 27.4145 57.3188C27.4115 57.3009 27.3941 57.254 27.3852 57.2381C26.8617 56.2975 26.228 55.407 25.6506 54.6522C25.2247 54.1033 25.3233 54.6296 25.2578 54.5545C24.3332 53.4787 23.531 52.2405 22.6271 52.0275C22.817 50.4386 21.9558 51.4833 20.6086 49.979C20.5014 49.8632 20.7243 49.2636 21.2608 49.6034C21.796 49.9442 22.3712 50.7233 23.0789 51.2379C23.2473 51.3528 24.476 51.8229 24.6112 51.9274C25.6758 52.7043 25.0959 53.4386 25.1023 53.5164C25.1826 54.4234 26.515 55.1904 26.7679 55.4965C27.1873 55.9788 27.5367 56.4756 27.8405 56.9762C27.8682 57.0257 27.9227 57.172 27.9318 57.228C28.172 58.1749 27.9034 59.4692 27.2219 60.2295C27.1524 60.3191 27.0787 60.4145 27.0095 60.5063C26.4226 61.2702 26.77 61.7488 26.1963 62.281C24.2224 64.0106 23.0521 63.8426 21.3445 65.6772C20.9585 66.0529 21.7327 66.4156 19.8024 66.794C19.6795 66.8237 18.2327 66.9576 17.5854 67.4884C17.5038 67.5567 17.5696 67.732 17.4485 67.7911C16.734 68.1332 16.1687 68.197 15.4203 68.4198C15.32 68.4495 15.2164 68.4824 15.1086 68.5197C14.2288 68.8239 13.1555 69.2006 12.0784 69.3617C11.428 69.4621 10.5289 69.2675 10.2066 69.2297C9.296 69.1287 8.36305 69.622 7.76803 69.3436C7.19582 69.0551 8.25573 68.601 6.82651 68.4014C6.75724 68.8855 6.60596 69.3784 6.47883 69.8602C5.13982 69.7646 3.4586 69.4352 2.18934 68.0589C0.853899 66.7304 0.334435 64.4914 0.41949 62.8698C0.427459 62.4471 0.436151 62.0219 0.446206 61.594C0.455661 61.2036 0.180919 61.5953 0.185743 61.1741C0.219082 59.3907 0.512407 57.8341 0.835848 55.9074C1.08635 54.498 1.32276 52.8044 2.30122 51.2353C2.33936 51.1728 2.37799 51.1104 2.41715 51.0483C3.38071 50.6411 4.49576 48.7102 5.72325 47.4873C6.15003 47.0623 6.23053 47.197 6.57144 46.933C7.89613 45.9722 7.02276 46.1175 7.32694 45.7581C8.40281 44.6301 9.19987 44.8605 10.349 44.6893C10.6983 44.6543 11.0969 44.5712 11.5928 44.3957C11.6872 44.3526 12.8483 43.3784 13.0392 43.3005C14.186 42.7644 13.2873 43.4453 14.0475 43.3127C15.4404 43.097 16.4094 43.0925 18.0288 42.8196C18.4962 42.7382 19.652 42.3404 20.5715 42.6677C20.6907 42.71 20.6158 42.9031 20.712 42.9187C22.4457 43.2077 22.5401 42.6271 23.5781 42.5421C23.6311 42.5384 23.6856 42.5368 23.7412 42.5369C24.7298 42.5314 26.0244 43.1364 26.2886 43.3006C27.0235 43.747 25.6632 43.3319 25.6148 43.3579C25.0557 43.6433 26.1429 43.7503 26.9567 43.9281C26.9712 44.542 28.1134 44.7174 27.8002 44.1123C27.7638 44.0452 27.1169 43.9839 26.9567 43.9281C27.7782 43.472 29.0727 43.6343 30.3432 44.4799C30.9352 44.8817 30.2583 45.0189 32.2386 45.3892C33.1368 45.5694 32.9002 45.0763 33.7214 45.1863C34.1891 45.252 34.6821 45.3742 35.1865 45.5397C36.6514 46.0196 38.1937 46.7836 39.5536 47.2948C40.2112 47.5444 39.6655 47.0694 40.121 47.2365C41.3315 47.6897 42.3017 48.3387 43.5058 48.988C43.6163 49.0489 43.4833 48.6801 43.8515 48.9134C44.6984 49.4564 45.496 50.0997 46.1862 50.8808C47.2363 52.2612 48.7609 53.4503 48.7607 56.5337C48.7261 56.8628 48.6931 57.234 48.621 57.6663C48.4905 58.241 48.4007 59.4838 47.0332 60.459C45.8961 61.3194 44.064 62.0561 42.9464 62.2138C42.2639 62.3347 41.5553 62.3882 40.8464 62.3929C38.6341 62.399 36.2634 62.3014 34.4758 62.3717C32.9672 62.4242 33.2919 62.6569 32.6293 62.8046C31.3542 63.1164 28.989 62.2552 28.6464 62.0183C28.6574 62.0404 30.098 62.2444 29.3593 61.9879C28.9716 61.6567 28.6672 62.0213 28.6464 62.0183C28.6083 61.9976 28.4701 61.9527 28.2694 61.8803C27.6014 61.637 25.8292 61.0304 25.3414 60.8084C25.0304 60.6877 25.0982 60.9705 24.9319 60.897C24.1517 60.5281 22.9323 59.8705 22.4397 58.2859C21.9151 56.4588 21.2715 54.1322 22.6546 51.5519C23.1596 50.6851 23.7314 49.8542 24.3684 49.0688C24.4123 49.0192 24.552 49.2514 24.6524 49.1339C26.0715 47.5169 26.856 46.3398 28.1981 45.062C28.25 45.0136 28.3021 44.966 28.3545 44.9191C29.5285 43.844 30.6741 43.1521 31.729 42.9861C32.8004 42.2359 34.5765 41.5171 35.6233 41.2044C36.6646 40.8864 36.6409 40.3913 36.7285 40.344C37.3147 40.0553 37.87 39.8337 38.4055 39.6576C40.2117 39.0677 41.7068 38.7808 44.1092 38.3439C45.4313 38.0865 48.1622 37.7449 50.0209 38.0658C50.1538 38.0842 50.2787 38.1015 50.3954 38.1177C51.5973 38.2872 52.2914 38.5373 53.4218 38.7155C53.5755 38.7405 53.4712 38.4922 53.5194 38.4945C54.8417 38.5391 54.1104 38.9187 54.3444 39.0741C54.7671 39.3611 55.1079 39.5932 55.5554 39.8142C55.7793 39.926 56.0287 40.0333 56.3468 40.1702C56.5065 40.2399 56.6818 40.315 56.898 40.4256C57.116 40.5496 57.3642 40.6402 57.7639 41.0654C57.7817 41.0838 57.8002 41.1031 57.8195 41.1236C57.9099 41.226 58.1175 41.3556 58.3923 41.7034C58.6705 42.0387 58.9297 42.6837 58.9684 43.2439C59.1096 43.6443 59.2203 44.0892 59.1856 44.429C59.0666 45.4146 58.8788 44.9926 58.6887 46.0254C58.667 46.115 58.85 46.1406 58.638 46.7777C57.8395 49.2966 55.7722 51.8266 53.3116 53.139C52.9502 53.3421 52.5914 53.5444 52.235 53.746C51.9124 53.9272 52.4582 53.9334 51.9944 54.1983C49.8076 55.4369 47.3351 56.73 44.7858 57.5164C44.1494 57.7051 44.481 57.3884 44.3279 57.382C43.4157 57.3494 42.2589 58.1167 41.9979 58.1548C41.0878 58.3354 40.0741 58.4548 38.843 58.1259C35.3984 56.7656 34.8538 54.3825 34.2426 52.3655C33.8221 50.5764 33.7081 48.844 33.6324 46.9551C33.6072 46.6985 33.1614 44.6345 33.7167 43.7926C33.7523 43.73 34.3009 42.9173 34.0927 42.1188C34.0805 42.0678 33.7659 42.5745 33.9244 41.638C34.0323 41.0149 34.113 40.1293 34.3207 39.2478C34.4223 38.8165 34.5528 38.3841 34.7282 37.9861C34.8961 37.6041 35.547 36.7825 35.5014 35.5121C35.4856 35.4389 35.2091 33.3541 35.9914 32.8754C36.1226 32.7995 36.6376 33.1047 36.8602 31.6125C36.905 31.3335 36.6076 31.7357 36.7713 31.0858C36.7761 31.0671 36.7813 31.0475 36.787 31.0271C37.0932 29.901 37.8828 28.5795 38.3311 27.2082C38.4041 26.9702 38.5723 25.8324 39.2918 25.2827C39.4038 25.1972 39.4425 25.5162 39.6984 25.155C40.1492 24.5228 40.5945 23.8784 41.05 23.2398C41.8082 22.1765 42.5892 21.0921 43.4848 20.1179C43.99 19.5724 44.0046 20.073 44.5645 19.5379C45.1224 19.0002 46.2234 17.9 46.7008 17.2152C47.1824 16.5259 46.1543 16.7896 47.0434 15.8814C47.1325 15.7924 47.2232 15.7034 47.3142 15.6158C50.8065 12.4493 54.3259 8.635 60.4523 7.48088C60.6319 7.45688 60.8051 7.43426 60.9852 7.41119C61.76 7.31641 61.0897 7.20802 62.2416 7.06868C63.0518 6.97687 63.9827 6.8801 65.0442 6.84483C65.5796 6.82909 66.142 6.82593 66.7913 6.87981C67.4741 6.98498 68.0817 6.8811 69.4721 7.69157C70.1131 8.17979 70.6787 8.43679 71.3843 9.85946C71.6172 10.3783 71.745 11.2063 71.5992 11.8815C71.4632 12.5606 71.1983 13.0003 70.9965 13.3081C68.072 16.7214 65.5985 16.7822 63.8377 17.3532C60.8986 17.9428 64.3895 16.6062 62.1958 17.1402C61.1552 17.3829 60.163 18.2558 59.9244 18.333C59.1534 18.5838 58.4693 18.752 57.7878 18.891C56.3348 19.185 55.0217 19.321 53.4814 19.6121C53.0161 19.6986 53.5118 19.8754 53.1136 19.9455C51.7515 20.1857 50.2866 20.2337 48.9575 20.3417C48.3605 20.3892 48.4812 20.5712 47.9264 20.5834C46.7284 20.6066 45.6459 20.5458 44.4959 20.3616C44.3754 20.3417 44.2583 20.3209 44.1357 20.2987C44.0227 20.278 44.7989 20.0742 43.8522 20.027C42.451 19.8643 40.9144 20.0419 38.4652 18.8865C38.3199 18.8116 38.1417 18.7254 37.9479 18.6311C37.4286 18.3365 37.1178 18.8183 36.0761 17.4094C35.974 17.2534 36.098 17.1745 36.0439 16.986C36.0003 16.7846 35.7313 16.5385 35.0911 15.6937C35.0588 15.6488 34.9841 15.5404 34.8897 15.3749C34.4018 14.7007 33.6092 12.5561 34.0426 11.3589C34.1554 10.9851 34.6583 10.1269 34.8085 9.35133C34.8295 9.24109 34.4793 9.61208 34.6498 8.94791C34.8394 8.2649 35.1297 7.58244 35.518 6.94453C36.2214 5.78757 37.1019 4.42151 38.5026 3.26438C39.0434 2.84007 38.0549 3.25113 38.9059 2.63077C39.1982 2.43051 39.5162 2.24185 39.8532 2.07382C41.3986 1.21338 44.3327 0.115406 46.639 0.39073C47.5861 0.480918 46.9125 0.635536 46.9825 0.660707C47.3266 0.802099 47.6122 0.867663 47.8716 0.892544C48.3049 0.92761 48.6311 0.754674 48.8242 0.767174C50.6054 0.891352 51.9234 1.34124 53.6034 1.65068C54.0701 1.73973 53.7919 1.44503 53.8887 1.4462C54.8981 1.48035 54.0845 1.70479 54.684 1.89788C56.3561 2.46585 58.3118 2.99287 60.1879 4.22467C60.8266 4.67392 60.34 4.03196 60.7745 4.3141C60.798 4.3291 60.8249 4.34805 60.8557 4.37158C63.4849 6.47847 66.4455 8.69548 68.0153 12.8033C68.2642 13.6029 67.8977 13.1674 67.9093 13.3453C67.9867 14.3949 68.3504 15.9742 68.2919 16.687C68.2939 16.7504 68.2942 16.8023 68.2921 16.8399C68.1798 18.3996 67.818 18.9292 67.3629 20.1961C66.6993 21.9645 65.6558 23.7498 64.2456 25.2995C61.9964 27.9184 58.5826 30.4695 55.2981 31.6112C54.2814 31.9928 53.3029 32.3194 52.3678 32.6101C49.8383 33.393 47.4763 33.948 45.1402 34.351C41.6974 34.9187 38.4706 35.3034 34.7244 35.351C34.1672 35.3515 33.5848 35.3618 32.9749 35.3691C32.5428 35.3734 32.9805 35.6412 32.6054 35.6477C29.8579 35.659 25.1747 35.6793 22.6695 31.636C21.6513 29.98 20.7661 28.1557 20.1719 26.1721C20.047 25.7415 19.9701 26.4375 19.7664 25.7385C19.3451 24.3013 19.1352 22.3691 19.2635 20.8611C19.3249 20.1291 19.5101 21.1153 19.5727 20.3859C19.6469 19.6103 19.7588 18.8192 19.9058 18.0347C20.0653 17.1829 20.2452 16.2749 20.4709 15.3824C20.6553 14.675 20.094 15.667 20.3639 14.7458C21.2888 11.5314 23.4335 8.27218 26.4631 6.39728C27.9062 5.49431 29.6066 4.69842 31.786 4.69329C33.9888 4.62776 36.3191 6.08566 37.3383 7.70779C37.353 7.72902 37.3667 7.75088 37.3794 7.77335C37.6289 8.22694 37.4819 8.85091 37.9887 9.627C38.1528 9.62591 38.3058 9.5455 38.4611 9.50484C40.4474 13.7536 41.0269 17.7417 41.1971 22.0898C41.2039 23.2607 41.1802 24.4623 40.8274 25.8721C40.5629 27.2465 39.3037 29.0662 38.1468 29.7729C36.4314 30.9873 34.6552 32.4264 32.3598 33.563C31.985 33.7413 32.7627 33.6856 32.0217 34.0301C31.293 34.3573 30.5071 34.6419 29.6615 34.8325C26.4422 35.5274 22.7299 36.3103 18.7503 34.9164C18.2927 34.7314 18.6664 34.3941 17.3517 33.9129C17.1554 33.8551 15.8312 33.2103 15.1388 32.7617C15.0197 32.6944 14.9133 32.6392 14.8402 32.6099C14.7818 32.588 14.8997 32.9562 14.4508 32.6422C11.9421 31.0549 7.79883 27.5623 8.05236 22.9983C8.05309 22.9558 8.05384 22.9133 8.05463 22.871C8.06545 22.3323 8.32382 22.8987 8.33389 22.5168C8.40442 19.8091 8.20584 16.8607 8.50175 14.2603C8.70877 12.5147 9.11213 13.1809 9.57392 12.2735C9.63573 12.1519 9.72265 11.0594 9.97658 11.0248C10.5972 10.9491 11.2173 11.51 11.8846 11.3626C11.9554 11.3555 11.9858 10.9912 12.034 10.8462C12.0441 10.8167 12.0578 10.7978 12.0536 10.8525C12.0467 10.891 12.0499 10.9134 12.0071 11.0272C11.9654 11.1436 11.8493 11.3289 11.7729 11.42C11.6908 11.5153 11.7541 11.4793 11.8817 11.3378C12.0033 11.2076 12.114 10.9849 12.1348 10.9589C12.2119 10.8198 12.2316 10.8411 12.2677 10.8958C12.2821 10.8657 12.3063 11.8264 12.4111 12.0804C12.48 12.2537 12.745 11.9665 12.8261 12.3146C12.9079 12.6621 12.6819 13.0345 12.78 13.6184C12.8815 14.2078 13.1672 13.9531 13.1727 15.1193ZM40.3176 40.1831C41.2982 40.1554 41.2105 39.2835 40.2644 39.7601C40.2191 39.7842 40.2671 40.1853 40.3176 40.1831ZM1.30229 64.9226C1.3744 63.4888 0.925889 62.601 0.634809 63.5913C0.392633 64.6663 1.31598 65.4028 1.30229 64.9226ZM13.4113 67.8386C11.9291 67.8788 11.9577 69.1265 13.4475 68.5268C13.5334 68.4918 13.4983 67.8355 13.4113 67.8386ZM9.57023 16.5386C9.58136 16.5247 9.60252 15.7569 9.59192 15.7402C9.3228 15.3269 9.28017 16.8623 9.57023 16.5386ZM24.7714 61.9679C24.3307 62.1532 23.4252 63.119 23.9966 62.9263C24.4693 62.7743 25.3394 61.7372 24.7714 61.9679ZM35.9262 48.8977C35.9363 48.8819 35.9162 48.3326 35.8455 48.347C35.6096 48.3936 35.7267 49.1651 35.9262 48.8977ZM15.6757 46.0909C18.3695 47.8211 19.4201 49.728 16.5729 47.7663C16.0537 47.4134 17.8878 48.2172 17.2624 47.7124C16.1143 46.7877 14.951 46.8175 13.8598 45.7406C13.6625 45.545 15.5237 45.9899 15.6813 46.0927C15.6794 46.0921 15.6776 46.0915 15.6757 46.0909ZM41.1221 41.0374C41.1437 41.0424 41.8779 40.8561 41.8928 40.8416C42.2212 40.4693 40.7347 40.8452 41.1221 41.0374ZM47.223 20.0076C47.2619 19.9852 48.4698 18.7397 48.5018 18.6928C48.817 17.7088 46.331 20.2557 47.223 20.0076ZM46.2878 57.2002C46.2314 56.9189 46.1917 56.6156 46.1904 56.2981C46.1719 55.9421 46.1274 55.5328 46.1841 55.1001C46.351 55.5197 46.4433 55.9425 46.401 56.3174C46.3688 56.6253 46.3373 56.9225 46.2878 57.2002Z" fill="white"/>
<path d="M152.718 44.3411C152.762 44.3336 152.943 44.3439 153.022 44.3391C152.933 44.4082 152.558 44.3683 152.718 44.3411ZM160.657 39.2826C160.592 39.3007 160.528 39.3189 160.464 39.337C160.648 39.343 160.898 39.3244 161.074 39.3356C161.103 39.3375 161.03 39.3871 161.098 39.3875C161.166 39.3879 161.152 39.323 161.249 39.3136C161.354 39.3033 161.849 39.3363 162.025 39.3308C162.674 39.3103 163.332 39.2572 163.969 39.2694C163.311 39.3331 163.974 39.3665 164.162 39.3413C164.204 39.3355 164.193 39.2144 164.871 39.2294C165.292 39.2392 164.903 39.4212 165.612 39.3185C165.062 39.2096 165.596 39.2061 166.034 39.1924C166.112 39.1899 166.695 39.1954 166.963 39.1843C167.054 39.1805 167.191 39.1141 167.313 39.1099C167.396 39.107 167.463 39.1403 167.581 39.1361C168.134 39.1166 168.724 39.1018 169.278 39.1025C168.952 39.2722 169.539 39.1669 169.567 39.1741C169.702 39.2157 169.092 39.2404 169.334 39.2633C169.67 39.2516 170.012 39.2398 170.359 39.2281C170.078 39.2135 170.723 39.0837 170.84 39.1349C170.779 38.9918 172.4 39.2312 172.633 39.1791C172.684 39.1681 172.348 39.1028 173.123 39.1216C173.207 39.1237 173.176 39.1678 173.22 39.1629C173.247 39.16 173.405 39.019 173.579 39.0924C173.639 39.1192 173.255 39.2166 174.108 39.1654C173.755 39.0307 175.321 39.0686 175.598 39.0995C175.542 39.0815 175.486 39.0636 175.429 39.0456C175.707 39.092 175.757 39.0434 175.82 39.045C176.073 39.0513 176.426 39.0939 176.667 39.0857C176.947 39.0762 176.956 38.9886 177.275 39.0177C177.198 38.9996 177.125 38.9814 177.044 38.9633C177.27 38.9645 177.487 38.9658 177.71 38.967C177.198 39.0907 177.821 38.9708 177.863 38.9677C177.929 38.9625 177.835 39.0113 177.946 39.0037C177.957 39.0026 177.94 38.9582 178.111 38.9506C178.47 38.9349 178.414 38.9919 178.566 38.989C178.58 38.9885 178.53 38.949 178.793 38.9356C178.867 38.9318 178.928 38.929 178.978 38.9269C179.285 38.9136 179.139 38.9323 178.978 38.9496C178.876 38.9603 178.769 38.9704 178.757 38.9725C178.716 38.9805 179.003 39.1442 178.295 39.0952C178.532 39.1106 178.558 39.1846 178.584 39.1861C178.603 39.187 178.858 39.1771 178.982 39.1713C179.015 39.1697 179.038 39.1684 179.043 39.1678C179.239 39.1395 179.065 39.0914 179.104 39.0817C179.135 39.074 179.619 39.132 179.73 38.9767C179.964 39.1131 179.599 39.1078 179.212 39.1357C179.155 39.1657 179.582 39.1865 179.604 39.1859C180.154 39.175 179.848 39.0649 179.966 38.9883C180.029 38.9483 180.254 39.0225 180.045 38.923C180.544 38.9011 180.243 38.9679 180.275 38.9762C180.324 38.9882 180.498 38.9543 180.52 38.9578C180.552 38.9629 180.441 39.0015 180.569 39.0112C180.59 39.0125 180.792 38.9456 180.528 38.9224C180.88 38.9227 180.849 38.8704 180.972 38.9738C181.209 38.766 181.15 39.0881 181.246 39.0968C181.501 39.1195 181.423 38.9634 181.436 38.9553C181.527 38.9036 182.232 38.9366 182.405 38.908C182.341 39.0242 181.847 38.9268 181.739 38.952C181.377 39.0363 182.254 38.9934 181.994 39.1445C182.104 39.1018 182.214 39.059 182.324 39.0162C182.53 39.1015 182.242 39.1512 182.79 39.0994C182.878 39.0171 182.403 39.1248 182.496 39.0591C182.552 39.0206 182.87 39.0021 182.875 38.9825C182.881 38.9591 182.594 38.9963 182.638 38.9589C182.734 38.8787 183.787 38.9157 182.989 38.9856C183.212 38.9767 183.332 39.1264 183.523 39.0716C183.647 39.0359 182.936 38.8491 183.993 38.8497C184.018 38.9215 183.572 38.8866 183.56 38.8925C183.545 38.9011 183.631 39.062 183.645 39.0696C183.696 39.0948 184.77 38.9668 185.003 39.0398C184.908 38.9488 185.818 38.991 185.917 38.958C185.943 38.949 185.842 38.895 185.87 38.8877C186.045 38.8442 186.523 38.9287 186.744 38.9224C186.991 38.9156 186.958 38.8667 186.971 38.8663C187.08 38.8647 186.995 38.9021 187.061 38.8993C187.162 38.8951 187.852 38.8743 187.887 38.8659C187.897 38.8632 187.782 38.8105 187.932 38.7937C187.958 38.7907 187.943 38.8592 188.389 38.8121C188.924 38.7556 188.012 38.7426 188.233 38.6627C188.582 38.7501 188.566 38.6504 188.66 38.6545C188.692 38.6561 188.939 38.7318 189.199 38.7163C189.012 38.7374 188.824 38.7586 188.637 38.7799C188.822 38.7875 189.181 38.755 189.334 38.766C189.408 38.7713 189.35 38.8437 189.512 38.8356C189.546 38.8335 189.676 38.6576 189.255 38.7505C189.218 38.6909 189.421 38.7228 189.515 38.702C189.529 38.6987 189.581 38.5948 189.702 38.6535C189.732 38.668 189.43 38.9765 190.227 38.7314C190.253 38.7235 190.162 38.6897 190.187 38.681C190.204 38.6752 190.409 38.6826 190.432 38.6765C190.455 38.67 190.354 38.6331 190.382 38.6241C190.522 38.5777 190.714 38.7318 190.421 38.7303C190.519 38.7466 190.618 38.7629 190.717 38.7792C190.608 38.6617 190.869 38.7395 191.004 38.731C191.872 38.6765 191.287 38.6181 191.435 38.572C191.672 38.4982 191.496 38.7121 191.85 38.6376C191.883 38.6307 191.45 38.5567 192.292 38.5786C192.168 38.5861 192.045 38.5936 191.92 38.6012C191.997 38.7161 192.367 38.5784 192.397 38.5758C192.727 38.5492 192.505 38.5984 192.993 38.5228C193.037 38.516 193.134 38.5421 193.227 38.5248C193.615 38.4536 192.712 38.5042 192.687 38.4577C192.674 38.4345 193.644 38.4111 193.678 38.4215C193.82 38.4664 193.239 38.4559 193.352 38.5135C193.391 38.5333 194.775 38.4508 195.052 38.4687C195.376 38.4885 195.52 38.6447 195.519 38.4658C195.613 38.6393 195.69 38.5178 195.732 38.5181C196.229 38.5238 196.227 38.5257 196.654 38.5009C196.747 38.4955 196.827 38.5474 196.86 38.5378C196.879 38.5321 196.842 38.4757 196.936 38.4565C197.069 38.4298 197.858 38.4765 197.919 38.5075C197.978 38.5382 197.584 38.5258 197.656 38.5767C197.771 38.5771 197.885 38.5747 198 38.5718L197.868 38.5776C198.031 38.5634 198.204 38.5477 198.371 38.5393C198.491 38.5335 198.432 38.5739 198.484 38.5711C198.507 38.5697 198.916 38.5105 198.899 38.4984C198.864 38.4735 197.947 38.5476 197.863 38.5208L197.999 38.5149C197.991 38.5117 197.99 38.5081 197.999 38.5038L197.862 38.5098C197.87 38.5053 197.886 38.4997 197.911 38.493C197.974 38.476 198.211 38.5427 198.167 38.444C199.315 38.3854 200.451 38.3455 201.584 38.3143C200.937 38.4212 200.199 38.3919 199.516 38.4402C199.423 38.4465 199.103 38.4566 199.145 38.5055C199.729 38.4819 200.45 38.415 201.008 38.4203C201.026 38.4205 200.963 38.47 201.03 38.4739C201.158 38.481 201.557 38.387 201.628 38.403C201.64 38.4069 201.411 38.4788 201.483 38.514C201.668 38.6044 201.706 38.3827 201.859 38.3782C201.978 38.3744 202.792 38.4449 202.986 38.37C203.196 38.2895 202.392 38.3535 202.448 38.2928C202.992 38.2102 203.548 38.2507 204.061 38.2242C204.07 38.2237 203.99 38.1808 204.105 38.1701C204.306 38.1515 204.359 38.2147 204.457 38.2216C204.561 38.2288 204.935 38.2064 204.983 38.2285C204.99 38.2314 204.917 38.2984 204.906 38.3007C204.746 38.3328 204.684 38.2512 204.67 38.2507C204.614 38.2495 204.561 38.2834 204.51 38.2833C204.428 38.2831 204.381 38.2551 204.272 38.2565C204.196 38.2574 204.272 38.3116 204.198 38.3117C204.171 38.3115 203.877 38.1923 203.856 38.326C203.85 38.366 206.21 38.3389 206.442 38.3005C206.238 38.2907 206.04 38.2809 205.835 38.2714C206.245 38.2972 206.736 38.1766 206.775 38.3326C208.295 38.3011 209.816 38.2785 211.332 38.2619C211.604 38.2701 211.458 38.3737 211.902 38.3361C211.786 38.3061 211.671 38.2761 211.555 38.2461C211.783 38.2641 212.795 38.2903 212.961 38.267C212.982 38.2639 213.009 38.1721 213.262 38.1602C213.486 38.1497 213.524 38.2175 213.645 38.2287C213.745 38.238 213.857 38.2184 213.887 38.2217C213.91 38.2244 213.92 38.266 213.975 38.2725C214.15 38.2924 214.007 38.1768 214.182 38.3095C214.14 38.3152 214.098 38.321 214.056 38.3268C214.266 38.3432 214.557 38.4005 214.246 38.4353C214.192 38.4413 214.238 38.4001 214.198 38.4008C212.643 38.4321 213.884 38.4913 214.43 38.4208C214.569 38.4786 215.355 38.4314 215.38 38.443C215.417 38.4596 215.283 38.5093 215.459 38.5483C215.474 38.5517 215.652 38.5461 215.836 38.5437L215.802 38.5445C216.071 38.5354 216.349 38.531 216.13 38.5875C216.089 38.5972 215.955 38.6022 215.804 38.6053L215.837 38.6045C215.685 38.6045 215.527 38.6027 215.466 38.6047C215.56 38.6451 215.695 38.6518 215.838 38.6428L215.806 38.6435C216.09 38.619 216.397 38.5248 216.447 38.5257C216.743 38.5329 215.882 38.6598 216.549 38.6463C217.063 38.6341 216.578 38.5715 216.773 38.5262C216.884 38.5011 217.469 38.5641 217.45 38.4436C217.649 38.4198 217.536 38.4901 217.561 38.4934C217.586 38.4961 217.983 38.4378 218.121 38.4566C218.137 38.4589 218.089 38.5244 218.106 38.5287C218.135 38.5354 218.544 38.5044 218.565 38.4994C218.576 38.4952 218.473 38.4438 218.514 38.429C218.553 38.4102 218.993 38.4154 219.028 38.403C219.053 38.3757 218.512 38.4003 218.602 38.338C218.834 38.3443 219.282 38.3042 219.542 38.2879C219.476 38.2919 219.162 38.2743 219.073 38.27C219.09 38.1678 219.827 38.2381 219.565 38.2842C219.738 38.2678 219.625 38.2321 219.731 38.2111C219.755 38.203 220.031 38.2561 220.095 38.26C220.101 38.2554 219.816 38.1582 219.878 38.1536C219.93 38.1467 220.183 38.1898 220.443 38.2876C220.703 38.3829 220.922 38.5156 220.949 38.5363C221.127 38.6578 220.438 38.3263 220.348 38.3591C220.349 38.3495 220.905 38.6942 220.889 38.7093C220.901 38.7799 220.291 38.4351 220.335 38.5356C220.494 38.6087 220.645 38.6963 220.776 38.7865C220.503 38.6567 220.013 38.4906 219.67 38.4578C219.324 38.4166 219.098 38.4311 219.004 38.4651C219.284 38.4563 219.659 38.4748 219.999 38.5846C220.339 38.6925 220.542 38.854 220.5 38.9235C220.47 38.9794 220.109 38.8748 220.116 38.9022C220.152 38.9674 220.633 39.1227 220.637 39.141C220.647 39.1517 220.651 39.1583 220.649 39.1615C220.649 39.1615 220.649 39.1615 220.649 39.1615C220.649 39.1799 219.984 38.9111 219.943 38.9429C219.883 38.9545 220.132 39.1621 220.118 39.1904C220.104 39.1805 219.664 39.0925 219.798 39.1775C219.931 39.2487 220.29 39.4035 220.294 39.4188C220.353 39.4602 219.722 39.248 219.704 39.2858C219.693 39.2866 220.005 39.4298 220.006 39.4535C220.009 39.4676 219.755 39.4196 219.658 39.4532C219.585 39.4738 219.77 39.5433 219.735 39.5416C219.703 39.5242 219.216 39.4619 219.201 39.4762C219.167 39.4836 219.272 39.5324 219.255 39.5423C219.232 39.5554 219.09 39.5342 219.108 39.5509C219.119 39.5519 219.673 39.7629 219.654 39.8168C219.628 39.8687 219.096 39.6358 219.569 39.9791C219.572 39.9804 219.698 39.9939 219.701 39.9978C219.753 40.0674 219.377 40.02 219.814 40.1577C218.983 40.0118 219.694 40.2137 219.542 40.2905C219.494 40.3159 219.202 40.299 219.198 40.3092C219.223 40.3656 219.321 40.3318 219.347 40.3631C219.364 40.3773 219.1 40.415 219.156 40.4577C219.19 40.4752 219.442 40.4995 219.445 40.5092C219.523 40.564 219.41 40.5774 219.424 40.6069C219.435 40.6249 219.544 40.6585 219.544 40.6638C219.546 40.6684 219.384 40.6936 219.343 40.715C219.315 40.729 219.403 40.7746 219.383 40.7795C219.289 40.805 219.013 40.6658 219.256 40.8592C219.271 40.871 219.347 40.8787 219.348 40.8815C219.381 40.9376 219.253 40.919 219.214 40.9579C219.165 41.0221 219.373 41.0069 219.197 41.0364C219.33 41.096 219.348 41.1014 219.411 41.1146C219.344 41.0968 219.192 41.1381 219.153 41.1848C219.1 41.2302 219.263 41.2836 219.304 41.2984C219.271 41.2859 219.242 41.3852 219.222 41.3838C219.226 41.3811 219 41.2677 219.094 41.4996C219.113 41.5281 219.21 41.5015 219.174 41.5563C218.899 41.5237 219.184 41.5916 219.165 41.6001C219.166 41.6671 219.025 41.6562 218.694 41.6592C218.379 41.6607 217.988 41.6608 217.876 41.6741C217.615 41.7062 217.385 41.8238 217.326 41.8269C217.137 41.8367 217.291 41.7753 217.248 41.7578C217.201 41.7411 216.665 41.869 216.636 41.8642C216.531 41.8461 216.634 41.7783 216.623 41.7755C216.537 41.7541 216.198 41.7805 215.912 41.7975C215.905 41.7972 215.884 41.7987 215.877 41.7983C215.727 41.8042 215.595 41.8085 215.525 41.8043C215.531 41.8453 215.935 41.8435 215.684 41.9126C215.392 41.9933 215.374 41.8124 215.366 41.8045C214.028 41.8237 212.692 41.8466 211.352 41.8744C211.372 41.9702 212.243 41.8813 212.265 41.8937C212.38 41.9664 210.908 41.9927 210.723 41.963C210.861 41.981 211.001 41.999 211.138 42.0171C210.905 42.1325 210.385 41.9993 210.043 42.0557C209.934 42.074 210.146 42.1121 210.141 42.1151C210.018 42.1609 209.821 42.1321 209.967 42.0711C209.668 42.1331 209.711 42.071 209.479 42.0718C209.467 42.0719 209.567 42.1143 209.384 42.137C209.299 42.1476 208.843 42.1587 208.782 42.1994C208.757 42.2164 208.994 42.3841 209.019 42.2342C209.516 42.2952 209.176 42.1625 209.368 42.1614C209.398 42.1615 209.332 42.2462 209.817 42.196C209.73 42.3481 209.164 42.2488 209.072 42.2694C208.875 42.3114 209.691 42.3697 209.837 42.2495C209.771 42.3683 209.895 42.264 210.077 42.2648C210.277 42.2657 210.19 42.3025 210.299 42.3004C210.592 42.295 210.468 42.2149 210.712 42.2844C210.47 42.0584 211.129 42.2453 211.319 42.3022C211.012 42.3199 210.699 42.338 210.393 42.3563C210.411 42.368 210.428 42.3798 210.446 42.3915C210.366 42.3915 210.284 42.3915 210.202 42.3916C210.215 42.3797 210.227 42.3678 210.24 42.3559C209.82 42.4406 209.719 42.3581 209.684 42.3579C209.241 42.358 208.734 42.371 208.289 42.3822C208.222 42.3839 208.269 42.4581 207.782 42.4119C207.625 42.3973 207.771 42.3345 207.595 42.3481C207.379 42.5139 207.38 42.3864 207.315 42.388C207.128 42.3933 207.012 42.4363 206.995 42.4372C206.765 42.45 206.423 42.4536 206.17 42.4674C206.166 42.4682 206.299 42.5131 206.134 42.5037C206.075 42.5004 205.548 42.3073 205.095 42.3913C205.213 42.4014 205.332 42.4116 205.451 42.4217C205.31 42.4062 204.338 42.4935 204.578 42.5412C204.724 42.5702 205.079 42.4226 205.121 42.5512C204.795 42.5219 203.007 42.6493 202.869 42.6266C202.85 42.6231 202.966 42.5759 202.939 42.5717C202.919 42.5683 202.507 42.5962 202.454 42.5824C202.422 42.5742 202.6 42.5405 202.585 42.526C202.573 42.5155 202.059 42.5206 202.033 42.5749C202.156 42.5478 202.513 42.5503 202.329 42.6032C202.305 42.6098 202.179 42.5814 202.151 42.5898C201.886 42.6666 202.686 42.6147 202.811 42.6102C202.312 42.6988 201.529 42.6558 200.95 42.7303C200.712 42.6987 201.294 42.6451 201.028 42.6224C200.469 42.5762 200.883 42.6909 200.866 42.6973C200.732 42.7486 200.252 42.5371 200.262 42.7179C200.064 42.7019 200.123 42.6756 199.845 42.7157C199.882 42.7261 199.92 42.7364 199.958 42.7467C199.654 42.869 198.975 42.6479 199.024 42.6248C199.153 42.562 199.503 42.6243 199.532 42.6205C199.576 42.615 199.683 42.4237 200.172 42.56C200.361 42.4254 199.412 42.5215 199.838 42.4121C199.545 42.4417 198.341 42.4363 198.175 42.5047C198.164 42.5095 198.191 42.5479 198.165 42.5735C198.143 42.5737 198.075 42.5797 198.052 42.5785C198.03 42.5973 197.974 42.6063 197.842 42.5807C197.699 42.5529 198.043 42.5467 197.978 42.5197C197.776 42.4331 195.053 42.5401 194.535 42.562C194.501 42.563 194.513 42.5246 194.48 42.5258C194.377 42.5295 194.012 42.5963 193.828 42.584C194.207 42.6438 193.476 42.67 193.29 42.6681C193.007 42.6648 193.022 42.5974 192.9 42.5869C192.428 42.5465 191.706 42.7301 191.335 42.5945C191.36 42.7413 190.7 42.5447 190.403 42.5546C190.171 42.5622 189.836 42.6726 190.153 42.7202C189.751 42.7285 189.33 42.7724 188.953 42.7962C188.89 42.8001 188.975 42.7531 188.868 42.7613C188.859 42.7623 188.847 42.8056 188.756 42.8136C188.004 42.8808 188.367 42.7755 188.225 42.7544C188.145 42.7426 188.087 42.7375 188.044 42.7367C188.483 42.7107 188.989 42.674 189.125 42.6675C189.005 42.5775 188.151 42.7241 187.899 42.7088C187.89 42.7083 187.919 42.655 187.91 42.655C187.91 42.655 187.909 42.655 187.909 42.655C187.814 42.6549 187.215 42.6982 187.341 42.7553C187.375 42.7705 187.65 42.7594 187.979 42.7405C187.891 42.7557 187.959 42.8113 187.944 42.8145C187.754 42.8509 187.288 42.8127 187.122 42.8117C187.084 42.8116 187.088 42.8488 187.082 42.8491C186.931 42.8467 186.989 42.7376 186.839 42.8537C186.563 42.7318 187.348 42.8135 187.29 42.7294C187.244 42.6648 185.509 42.7701 185.518 42.8743C185.511 42.8633 185.487 42.8504 185.437 42.8365C185.327 42.8057 184.843 42.8354 184.76 42.8579C184.746 42.8622 184.755 42.9636 184.738 42.9652C184.695 42.9692 184.099 42.9119 183.879 42.9799C184 42.9898 184.119 42.9996 184.24 43.0094C183.518 43.0369 183.629 43.0628 183.872 43.0845C183.884 43.0844 183.896 43.0878 183.907 43.0878C184.095 43.1035 184.334 43.1162 184.339 43.1241C184.354 43.1545 183.128 43.2156 183.36 43.1128C183.393 43.0988 183.961 43.1205 183.678 43.0633C183.629 43.0533 183.265 43.0853 183.245 43.0785C183.116 43.0338 183.909 42.9402 183.809 42.8735C183.618 42.9472 183.37 42.9209 183.148 42.9457C183.048 42.9569 183.025 43.0087 183.012 43.0101C182.827 43.0296 182.93 42.9727 182.868 42.9761C182.834 42.9782 182.471 43.1039 182.535 42.9449C181.33 43.0976 182.205 43.0716 182.946 43.0378C182.713 43.1029 182.253 43.09 182.047 43.1094C181.973 43.1165 182.019 43.1674 181.894 43.1816C181.637 43.2117 180.404 43.1838 180.082 43.1753C180.279 43.1526 180.22 43.0968 180.068 43.104C179.916 43.1111 180.046 43.1845 180.016 43.1933C179.984 43.2028 179.269 43.1801 179.15 43.1914C179.688 43.155 179.565 43.1003 179.108 43.1016C179.174 43.0843 179.24 43.0669 179.306 43.0494C179.234 43.0568 179.14 43.0565 179.039 43.0526C178.761 43.0421 178.431 43.0058 178.319 43.0263C178.295 43.0308 178.382 43.0773 178.369 43.0799C178.233 43.1022 177.777 43.0604 177.757 43.077C177.739 43.0908 177.934 43.1279 177.862 43.1488C177.847 43.1531 177.659 43.0914 177.477 43.1101C177.41 43.117 177.451 43.1615 177.434 43.1644C177.292 43.1884 177.378 43.1109 177.115 43.1272C176.919 43.1393 176.774 43.216 176.505 43.1956C177.391 43.2765 176.644 43.2486 176.28 43.2832C176.221 43.2888 176.272 43.37 175.923 43.3357C176.663 43.1754 175.709 43.2607 175.519 43.2622C175.509 43.2619 175.504 43.2078 175.41 43.2085C175.402 43.2087 175.415 43.2451 175.324 43.2494C174.464 43.2901 175.014 43.2397 174.85 43.2063C174.78 43.1921 174.368 43.2508 174.259 43.2539C174.233 43.2545 174.244 43.2163 174.147 43.2195C173.974 43.2251 173.821 43.2682 173.708 43.2734C173.695 43.2738 173.693 43.2139 173.471 43.2372C173.409 43.2438 173.339 43.2663 173.428 43.2819C173.733 43.3333 174.256 43.2261 174.589 43.2771C174.888 43.3236 173.949 43.3444 173.904 43.3455C173.886 43.346 174.067 43.3131 173.883 43.3104C173.731 43.3081 173.432 43.4169 173.193 43.3986C173.174 43.3972 172.982 43.3128 172.991 43.3076C172.998 43.3037 173.291 43.2794 173.248 43.2548C173.243 43.252 173.057 43.2559 173.032 43.2374C173.002 43.2149 172.918 42.9904 172.878 42.9854C172.777 42.9733 172.843 43.0236 172.778 43.0212C172.636 43.0161 172.153 42.9581 172.14 43.0367C172.219 43.0399 172.299 43.0431 172.378 43.0463C171.937 43.0624 172.126 43.0923 172.064 43.1081C171.995 43.1252 172.013 43.0561 171.859 43.0524C171.824 43.0516 171.187 43.0779 171.2 43.1065C171.55 43.054 171.422 43.1415 171.438 43.1427C171.5 43.1471 171.578 43.0979 171.661 43.0973C172.248 43.0939 171.657 43.1802 171.796 43.197C171.844 43.2026 171.939 43.1602 171.959 43.1619C172.025 43.1674 172.028 43.2207 172.071 43.2156C172.169 43.2038 172.053 43.1304 172.06 43.1264C172.147 43.0775 172.497 43.1299 172.281 43.216C172.412 43.2432 172.426 43.1432 172.53 43.1812C172.738 43.2565 172.428 43.2418 172.345 43.2564C172.05 43.3091 171.954 43.2725 171.521 43.2937C171.365 43.3012 171.184 43.3531 171.112 43.3571C171.067 43.3597 170.642 43.199 170.636 43.4632C170.478 43.4407 170.201 43.272 170.031 43.2833C169.877 43.2936 169.928 43.386 169.913 43.3899C169.891 43.396 169.705 43.3923 169.643 43.4067C169.57 43.4238 169.608 43.4587 169.492 43.4755C169.205 43.5173 169.212 43.4218 169.182 43.4162C168.842 43.3514 168.99 43.4841 168.914 43.4965C168.838 43.508 167.831 43.4764 167.63 43.5151C167.714 43.4942 167.798 43.4734 167.882 43.4525C167.729 43.3962 167.572 43.4966 167.567 43.39C167.539 43.5628 167.214 43.4546 167.118 43.4611C167.08 43.4637 167.084 43.493 167.037 43.4953C166.852 43.5044 166.441 43.4899 166.344 43.5069C165.922 43.5802 167.008 43.6631 167.101 43.6676C166.922 43.6695 165.958 43.7291 166.403 43.8022C166.472 43.8135 166.592 43.7338 166.631 43.7299C166.894 43.7044 166.688 43.7779 166.709 43.784C166.744 43.7939 166.917 43.7234 166.963 43.7303C166.979 43.7325 166.881 43.7972 167.135 43.7931C167.009 43.8563 166.303 43.8222 166.215 43.8385C166.181 43.8443 166.394 43.9691 165.775 43.857C165.783 43.8689 165.79 43.8807 165.797 43.8926C165.454 43.9052 165.127 43.9175 164.786 43.9303C164.823 43.9017 165.016 43.8417 164.772 43.8591C164.632 43.8691 164.737 43.9284 164.724 43.9305C164.589 43.9502 162.423 43.9812 161.985 43.9995C161.84 44.0053 161.444 44.0649 161.415 44.0665C161.231 44.0761 160.574 44.0607 160.45 44.0709C160.371 44.0775 160.448 44.1271 160.377 44.1265C160.311 44.1259 160.378 44.0743 160.358 44.0727C160.187 44.059 158.938 44.1575 158.636 44.1188C158.818 44.1279 159.726 44.004 159.705 43.9695C159.701 43.9647 159.481 43.9326 159.436 43.9523C159.363 43.9111 159.106 44.0494 158.963 44.0275C158.947 44.025 159.007 43.9496 158.755 43.943C158.667 43.9408 158.447 44.0042 158.219 43.9461C157.877 43.9862 156.159 43.9385 156.031 44.0215C156.027 44.0258 156.274 44.0461 156.109 44.0833C155.89 44.1327 156.083 43.9816 155.828 43.9763C155.796 43.9752 155.074 44.0104 155.055 44.02C154.842 44.1077 155.463 44.1233 155.457 44.1329C155.434 44.1575 154.918 44.1866 154.9 44.1815C154.879 44.1762 155.292 44.0562 154.794 44.1114C154.853 44.1227 154.909 44.134 154.967 44.1453C154.736 44.1771 154.703 44.1031 154.646 44.1001C154.463 44.0908 154.275 44.2099 153.985 44.0775C153.907 44.0424 154.034 43.9974 154.024 43.9921C153.929 43.9446 153.815 44.0821 153.674 43.9859C153.665 43.9786 153.98 43.9098 153.425 43.9252C153.463 43.9337 153.501 43.9423 153.54 43.9508C153.467 43.9743 152.892 44.0029 152.819 43.9998C152.598 43.991 152.79 43.9169 152.567 43.9312C152.714 44.0217 152.028 44.0524 152.068 43.97C151.979 44.0745 151.396 44.0108 151.12 44.015C150.946 44.0179 150.602 44.0705 150.543 44.0666C150.476 44.0617 150.494 43.9916 150.374 43.9788C150.34 43.9751 149.981 44.0342 149.665 43.9681C149.605 43.9554 149.476 43.8396 149.588 43.808C149.776 43.7539 150.152 43.8412 150.144 43.7715C150.137 43.6971 149.641 43.7517 149.509 43.7442C148.889 43.7102 149.246 43.6244 149.229 43.6007C149.188 43.5431 148.852 43.5502 148.837 43.5451C148.777 43.5227 149.018 43.4728 149.021 43.4371C149.025 43.3907 148.696 43.3119 148.77 43.2951C148.877 43.2714 149.175 43.3364 149.193 43.3327C149.438 43.2834 149.099 43.1821 149.008 43.1308C148.98 43.115 149.09 43.0866 149.067 43.0822C148.709 43.0157 148.994 43.2341 148.756 43.2228C148.545 43.2126 148.815 43.1383 148.807 43.1345C148.796 43.1304 148.545 43.1301 148.506 43.1056C148.483 43.0937 149.143 42.9468 149.111 42.8856C148.905 42.9026 148.69 42.9193 148.485 42.9354C148.467 42.8556 148.767 42.9105 148.799 42.9017C148.861 42.8842 148.685 42.8463 148.693 42.8208C148.696 42.8046 148.901 42.7442 148.715 42.7231C148.651 42.7159 148.523 42.7739 148.287 42.7192C149.092 42.6357 148.532 42.5978 148.51 42.5698C148.486 42.5417 148.867 42.4699 148.403 42.4878C148.38 42.3321 148.415 42.4384 148.544 42.4093C148.706 42.3733 148.329 42.3275 148.924 42.3577C148.886 42.2855 148.416 42.2972 148.388 42.2915C148.365 42.2865 148.472 42.2493 148.434 42.2376C147.983 42.1017 148.292 42.1626 148.162 42.0739C148.15 42.0661 147.731 42.0365 148.05 42.0205C148.636 41.9907 148.877 42.0895 148.975 41.8669C148.538 41.7781 148.021 41.9261 147.889 41.9294C147.686 41.9345 147.895 41.8878 147.87 41.8753C147.861 41.8713 147.688 41.8763 147.686 41.8727C147.56 41.7054 148.46 41.8636 148.737 41.8293C148.661 41.8052 148.586 41.7809 148.511 41.7566C148.612 41.7543 148.714 41.7519 148.817 41.7493C148.329 41.7055 148.798 41.7305 148.92 41.5919C148.947 41.5608 148.625 41.6184 148.992 41.5274C148.72 41.512 148.805 41.4828 148.564 41.5246C148.568 41.47 149.116 41.4001 149.331 41.3679C148.572 41.3191 149.002 41.5134 148.344 41.4158C148.222 41.4851 148.54 41.468 148.513 41.4795C148.423 41.5209 148.201 41.4598 147.946 41.6031C147.903 41.6266 148.085 41.6963 147.817 41.6951C147.787 41.6948 147.617 41.6351 147.62 41.6306C147.641 41.5828 147.809 41.5995 147.816 41.5796C147.822 41.5607 147.635 41.5733 147.635 41.5681C147.629 41.5084 147.791 41.5442 147.767 41.5257C147.715 41.4854 147.045 41.3611 147.921 41.3929C147.192 41.4655 147.829 41.4601 148.111 41.4311C148.183 41.4239 148.201 41.388 148.304 41.3745C148.439 41.3569 148.591 41.372 148.66 41.3644C148.734 41.3561 148.312 41.278 148.921 41.2942C148.608 41.2154 148.069 41.3113 147.764 41.2544C147.154 41.1393 148.188 41.107 148.296 41.0932C148.325 41.0897 148.227 41.0427 148.246 41.0395C148.28 41.0349 148.864 41.0493 148.924 41.0082C148.982 40.9675 148.707 41.0134 148.689 40.972C148.677 40.9445 149.383 40.8834 149.002 40.8705C148.734 40.862 148.251 40.9804 148.167 40.8603C148.559 40.8461 148.944 40.8303 149.332 40.8133C149.117 40.7712 148.907 40.7287 148.692 40.6858C149.131 40.6648 149.505 40.7098 149.92 40.6354C148.921 40.508 150.246 40.5115 150.255 40.4927C150.26 40.482 149.865 40.3708 149.801 40.3501C150.15 40.2976 151.202 40.25 150.584 40.1169C150.696 40.1476 150.964 40.0589 150.961 40.0527C150.924 39.9885 150.335 40.0445 150.429 39.9834C150.541 39.9124 150.699 40.0016 150.87 39.99C151.755 39.9296 151.505 39.5952 152.394 39.6255C152.376 39.6139 152.357 39.6022 152.339 39.5906C153.307 39.5838 154.276 39.5754 155.244 39.5673C155.625 39.4525 156.622 39.361 157.128 39.3585C157.232 39.3578 157.713 39.3991 157.754 39.4076C157.823 39.424 157.446 39.4414 157.617 39.4711C157.652 39.4771 158.489 39.4772 158.425 39.4208C158.332 39.4165 158.046 39.4536 157.994 39.4413C157.663 39.3522 160.215 39.3618 160.346 39.3194C160.289 39.302 160.233 39.2846 160.177 39.2671C160.336 39.2723 160.496 39.2775 160.657 39.2826ZM153.37 44.1581C153.277 44.2191 153.025 44.1822 152.884 44.2025C152.69 44.2307 152.353 44.4647 152.495 44.2355C152.788 44.2098 153.074 44.1841 153.37 44.1581ZM157.622 44.1256C157.429 44.0996 157.574 43.9697 157.735 44.0176C157.753 44.023 157.886 44.1606 157.622 44.1256ZM155.58 44.1231C155.591 44.1211 155.754 44.1198 155.761 44.1216C155.912 44.1679 155.407 44.1718 155.58 44.1231ZM165.445 43.8044C165.231 43.8146 165.388 43.9255 165.52 43.8754C165.529 43.8723 165.459 43.8038 165.445 43.8044ZM165.293 43.8048C165.125 43.7061 164.801 43.9212 165.062 43.8943C165.087 43.8916 165.3 43.8096 165.293 43.8048ZM156.925 44.0949C156.946 44.0551 157.149 44.0684 157.237 44.0753C157.236 44.1112 157.009 44.0882 156.925 44.0949ZM162.022 43.9488C162.027 43.9178 161.338 43.9368 161.29 43.9787C161.4 43.9586 162.012 43.9768 162.022 43.9488ZM163.816 43.8619C163.8 43.857 163.56 43.8708 163.566 43.8979C163.691 43.9306 163.894 43.8843 163.816 43.8619ZM167.378 43.7839C167.391 43.7768 167.206 43.6073 167.64 43.7123C167.703 43.7277 167.481 43.7777 167.502 43.7834C167.55 43.7946 167.588 43.7994 167.616 43.7998C167.416 43.8184 167.204 43.8297 167.184 43.8196C167.088 43.772 167.372 43.7869 167.378 43.7839ZM169.245 43.6163C169.285 43.5872 169.545 43.5971 169.605 43.6076C169.615 43.6096 169.572 43.6848 169.69 43.6769C169.785 43.6704 169.641 43.5971 169.827 43.6057C170.015 43.6142 169.765 43.6734 169.782 43.6769C169.803 43.6815 170.094 43.6417 170.086 43.6861C170.079 43.719 169.767 43.703 169.691 43.7114C169.594 43.7223 169.713 43.7746 169.55 43.7661C169.447 43.7608 169.502 43.6636 169.48 43.6592C169.462 43.6557 169.108 43.718 169.246 43.6166C169.245 43.6165 169.245 43.6164 169.245 43.6163ZM167.669 43.7945C167.654 43.798 167.637 43.8001 167.616 43.7998C167.634 43.7981 167.652 43.7963 167.669 43.7945ZM153.932 44.1002C154.036 44.1269 153.731 44.1735 153.617 44.1379C153.613 44.1067 153.915 44.0961 153.932 44.1002ZM167.849 43.7125C168.143 43.7304 167.927 43.768 167.669 43.7945C167.751 43.7747 167.751 43.7065 167.849 43.7125ZM159.436 43.9523C159.449 43.9592 159.457 43.9701 159.459 43.9884C159.426 43.9692 159.422 43.9585 159.436 43.9523ZM160.13 43.9668C160.369 43.9046 159.88 43.9197 159.885 43.9596C159.886 43.9746 160.12 43.9693 160.13 43.9668ZM165.72 43.8036C165.699 43.7987 166.033 43.6223 165.545 43.76C165.807 43.774 165.531 43.7985 165.536 43.8132C165.547 43.8555 165.987 43.8048 166.088 43.821C166.163 43.7433 165.792 43.82 165.721 43.8036C165.721 43.8036 165.721 43.8036 165.72 43.8036ZM172.614 43.5932C172.556 43.6388 172.369 43.6279 172.244 43.6275C172.301 43.5819 172.488 43.5929 172.614 43.5932ZM205.973 42.5231C205.109 42.5922 204.989 42.4151 205.785 42.4605C205.8 42.4615 206.026 42.503 205.973 42.5231ZM198.571 42.8252C198.486 42.752 198.747 42.7208 198.928 42.7415C198.967 42.7462 199.118 42.8164 198.953 42.8431C198.953 42.747 198.688 42.7282 198.571 42.8252ZM168.014 43.6584C168.098 43.6039 168.364 43.6359 168.506 43.641C168.42 43.6861 168.137 43.6723 168.014 43.6584ZM203.123 42.5321C203.032 42.5299 202.974 42.6012 202.99 42.6062C203.061 42.6295 203.229 42.5669 203.123 42.5321ZM167.157 43.6683C167.143 43.637 167.5 43.5991 167.527 43.6765C167.449 43.6725 167.165 43.6878 167.157 43.6683ZM172.376 43.5739C172.322 43.5589 172.601 43.5251 172.687 43.5395C172.68 43.5731 172.411 43.5837 172.376 43.5739ZM201.658 42.6212C201.577 42.6191 201.375 42.6273 201.353 42.6562C201.327 42.6923 201.624 42.6658 201.658 42.6212ZM216.983 42.1412C216.993 42.1533 216.672 42.2584 216.525 42.2415C216.245 42.2099 216.973 42.1336 216.983 42.1412ZM203.986 42.4622C204.245 42.5178 203.958 42.4653 203.972 42.5337C204.143 42.5296 204.578 42.517 204.277 42.4603C204.218 42.4494 204.066 42.4636 203.986 42.4622ZM203.747 42.4484C203.72 42.4717 203.537 42.5494 203.697 42.538C203.772 42.5326 203.889 42.4499 203.747 42.4484ZM214.937 42.2284C214.705 42.1704 215.768 42.189 215.801 42.1995C215.817 42.2049 215.828 42.2101 215.834 42.2145C215.843 42.2101 215.86 42.2063 215.882 42.2037C215.89 42.2042 215.917 42.2024 215.926 42.2027C216.004 42.1921 216.131 42.194 216.151 42.2311C216.102 42.2297 215.985 42.2359 215.927 42.2361C215.918 42.2358 215.891 42.2376 215.882 42.2371C215.868 42.2369 215.858 42.2363 215.854 42.2352C215.845 42.233 215.839 42.2309 215.835 42.2288C215.762 42.272 214.984 42.2392 214.937 42.2284ZM213.173 42.192C213.436 42.0978 213.486 42.25 213.463 42.2553C213.175 42.3225 213.362 42.2067 213.353 42.2016C213.333 42.1931 213.129 42.2487 213.174 42.192C213.174 42.192 213.173 42.192 213.173 42.192ZM214.576 42.2082C214.586 42.2061 214.809 42.2077 214.818 42.21C215.002 42.2588 214.372 42.2545 214.576 42.2082ZM170.654 43.4817C170.812 43.4939 170.659 43.5531 170.554 43.5348C170.546 43.533 170.516 43.4709 170.654 43.4817ZM203.62 42.4685C203.585 42.4588 202.641 42.4581 202.7 42.541C202.783 42.5267 203.851 42.5271 203.62 42.4685ZM196.487 42.7726C196.654 42.7701 196.473 42.8537 196.384 42.8255C196.351 42.8151 196.445 42.7733 196.487 42.7726ZM166.68 43.6057C166.509 43.6535 166.541 43.5051 166.691 43.5524C166.697 43.5543 166.687 43.6039 166.68 43.6057ZM197.815 42.7966C197.262 42.8518 197.365 42.6131 198.053 42.6664C198.077 42.6678 198.148 42.6614 198.172 42.6612C198.194 42.6617 198.217 42.6624 198.24 42.6634C198.218 42.6763 198.197 42.6891 198.175 42.702C198.151 42.7021 198.078 42.7086 198.054 42.7073C198.053 42.7074 198.053 42.7075 198.053 42.7076C198.053 42.7076 198.053 42.7076 198.054 42.7076C198.078 42.7089 198.151 42.7024 198.175 42.7023C198.876 42.6829 198.456 42.7047 198.177 42.7295C198.152 42.7297 198.079 42.7363 198.054 42.7349C197.993 42.7366 197.938 42.7388 197.901 42.7418C197.821 42.7483 197.888 42.7897 197.816 42.7969C197.816 42.7968 197.815 42.7967 197.815 42.7966ZM195.612 42.786C195.056 42.6182 196.114 42.7115 196.415 42.6827C196.123 42.7629 195.744 42.7596 196.262 42.8252C195.504 42.8557 195.818 42.7775 195.787 42.7721C195.751 42.7662 195.636 42.7932 195.612 42.786ZM197.069 42.756C197.1 42.7502 197.343 42.7829 197.429 42.7756C197.309 42.839 196.857 42.7954 197.069 42.756ZM211.325 42.2669C211.344 42.2183 211.393 42.1818 211.585 42.1961C211.526 42.2215 211.404 42.2447 211.325 42.2669ZM153.177 43.9093C153.042 43.9096 152.781 43.8985 152.863 43.9471C152.871 43.9512 153.177 43.9378 153.177 43.9093ZM200.889 42.5541C200.86 42.5493 200.146 42.5846 200.395 42.6242C200.473 42.6356 201.12 42.5945 200.889 42.5541ZM204.604 42.3983C204.544 42.3999 204.3 42.418 204.295 42.4296C204.28 42.4696 204.58 42.4369 204.604 42.3983ZM152.511 43.8781C152.491 43.8736 152.088 43.8933 152.134 43.9155C152.217 43.9576 152.571 43.8937 152.511 43.8781ZM171.229 43.3577C171.263 43.3552 171.308 43.4068 171.32 43.4072C171.346 43.4074 171.967 43.3757 171.731 43.4475C171.689 43.4595 170.804 43.4502 170.693 43.4458C170.648 43.3746 171.022 43.436 171.114 43.4268C171.13 43.4251 171.139 43.3647 171.229 43.358C171.229 43.3579 171.229 43.3578 171.229 43.3577ZM212.318 42.1975C212.343 42.1512 213.065 42.1086 213.058 42.1642C212.81 42.1752 212.563 42.1863 212.318 42.1975ZM211.951 42.1966C211.796 42.167 212.156 42.1497 212.264 42.1621C212.265 42.1929 211.973 42.2009 211.951 42.1966ZM203.235 42.2799C203.163 42.294 203.389 42.3516 203.34 42.3666C203.308 42.376 203.145 42.3576 203.095 42.3807C203.08 42.3879 203.247 42.4438 203.295 42.4391C203.363 42.4327 203.295 42.3861 203.369 42.3827C203.611 42.3718 203.834 42.3984 204.061 42.3889C204.082 42.388 203.92 42.3592 204.096 42.353C204.123 42.352 204.29 42.3977 204.502 42.3823C204.961 42.2046 205.314 42.3505 205.903 42.2735C205.879 42.2591 205.437 42.2328 205.409 42.2323C204.914 42.2221 204.024 42.2515 203.505 42.2723C203.372 42.2775 203.438 42.3089 203.381 42.3124C203.335 42.3152 203.387 42.25 203.235 42.2799ZM153.247 43.8725C153.181 43.8113 152.959 43.8573 152.82 43.8579C152.871 43.9133 153.106 43.8625 153.247 43.8725ZM208.713 42.2171C208.643 42.2213 208.427 42.2077 208.408 42.2272C208.387 42.2525 208.699 42.2603 208.713 42.2171ZM174.696 43.3138C174.703 43.312 174.874 43.3125 174.88 43.3144C175.033 43.3623 174.522 43.3606 174.696 43.3138ZM178.754 43.2618C178.869 43.2532 178.985 43.2354 179.042 43.266C179.049 43.2701 179.056 43.275 179.061 43.2809C179.055 43.2805 179.049 43.2802 179.042 43.28C178.946 43.2772 178.74 43.2952 178.754 43.2618ZM184.398 43.1057C184.37 43.0399 184.759 43.0685 184.833 43.0717C184.807 43.1025 184.42 43.1532 184.398 43.1057ZM211.293 42.0574C211.529 42.0568 211.478 41.9564 211.629 41.9994C211.654 42.0067 211.737 42.2162 211.475 42.1421C211.428 42.1288 211.61 42.0751 211.293 42.0574ZM198.359 42.6568C198.415 42.6083 198.601 42.6083 198.724 42.6033C198.699 42.638 198.448 42.6471 198.359 42.6568ZM151.78 43.8468C151.663 43.7874 151.158 43.8464 151.284 43.8845C151.303 43.8895 151.705 43.8464 151.78 43.8468ZM168.611 43.4441C168.824 43.3906 168.382 43.3843 168.246 43.4353C168.308 43.4308 168.597 43.4477 168.611 43.4441ZM183.047 43.1178C183.057 43.1155 183.282 43.1125 183.292 43.1145C183.478 43.1596 182.841 43.1683 183.047 43.1178ZM177.42 43.2007C177.498 43.159 178.024 43.1836 178.144 43.2224C178.029 43.2833 177.322 43.2528 177.42 43.2007ZM210.325 42.106C210.492 42.1004 210.651 42.1095 210.807 42.1239C210.774 42.1586 210.343 42.1311 210.325 42.106ZM183.872 43.0845C183.884 43.0844 183.896 43.0878 183.907 43.0878C183.895 43.0868 183.883 43.0856 183.872 43.0845ZM206.561 42.1779C206.419 42.1687 206.451 42.2303 206.459 42.232C206.566 42.249 206.722 42.1883 206.561 42.1779ZM153.081 43.7843C153.029 43.7293 152.792 43.7796 152.658 43.7698C152.698 43.8133 152.969 43.7933 153.081 43.7843ZM195.018 42.6844C194.839 42.6275 195.557 42.5392 195.709 42.5755C195.721 42.6128 195.044 42.6919 195.018 42.6844ZM167.955 43.3731C167.94 43.3292 167.642 43.3887 167.706 43.4083C167.746 43.4207 167.964 43.4003 167.955 43.3731ZM196.071 42.5935C196.138 42.5786 196.296 42.6191 196.241 42.6467C196.171 42.6822 196.054 42.5977 196.071 42.5935ZM202.205 42.285C202.174 42.2796 201.784 42.3432 201.948 42.3807C202.062 42.4067 202.077 42.3421 202.103 42.3407C202.132 42.3394 202.775 42.3888 202.205 42.285ZM190.99 42.7697C191.138 42.7474 191.32 42.7606 191.478 42.7539C191.415 42.7834 191.054 42.8037 190.99 42.7697ZM169.128 43.3372C169.1 43.3199 168.084 43.3298 168.659 43.3731C168.694 43.3755 169.242 43.3891 169.128 43.3372ZM211.293 42.0574C211.264 42.0575 211.229 42.0561 211.189 42.0525C211.229 42.0534 211.263 42.0558 211.293 42.0574ZM208.616 42.1101C208.669 42.0766 208.397 42.0748 208.316 42.094C208.292 42.1339 208.609 42.1147 208.616 42.1101ZM191.489 42.7086C191.579 42.6871 191.742 42.7011 191.855 42.6951C191.836 42.7256 191.529 42.7376 191.489 42.7086ZM185.114 42.9228C185.295 42.9336 185.518 42.9167 185.52 42.88C185.524 42.8855 185.533 42.8912 185.548 42.8968C185.563 42.9022 185.756 42.8776 185.84 42.8867C186.347 42.9413 183.896 43.0061 185.312 42.8478C185.246 42.8728 185.18 42.8978 185.114 42.9228ZM176.699 43.1259C176.595 43.083 176.308 43.1434 176.383 43.1597C176.435 43.1709 176.803 43.1691 176.699 43.1259ZM180.664 43.0321C180.632 43.0249 180.35 43.0627 180.343 43.0862C180.507 43.1073 180.805 43.0656 180.664 43.0321ZM175.911 43.0863C175.847 43.0807 175.767 43.1538 175.775 43.1568C175.84 43.1819 176.019 43.1246 175.911 43.0863ZM210.801 41.8738C210.704 41.8552 210.403 41.9135 210.338 41.9623C210.326 41.9534 210.292 41.9422 210.23 41.9292C210.23 41.9292 210.231 41.9292 210.231 41.9292C210.148 41.9105 207.691 41.9486 209.34 42.0004C209.392 42.0021 209.32 41.9612 209.531 41.9638C209.545 41.9641 209.553 41.9986 209.596 41.9993C209.696 42.0006 210.218 42.011 210.326 41.9808C210.327 41.9872 210.334 41.9932 210.348 41.9985C210.477 42.0458 210.875 41.8881 210.801 41.8738ZM181.224 43.0114C181.166 43.0001 180.987 43.017 180.969 43.0481C181.058 43.0609 181.356 43.0379 181.224 43.0114ZM169.095 43.2121C168.987 43.189 168.685 43.2423 168.777 43.2655C168.835 43.2797 169.227 43.2384 169.095 43.2121ZM179.419 43.0678C180.086 43.0921 179.578 43.0621 179.679 43.0153C179.593 43.0329 179.506 43.0504 179.419 43.0678ZM213.843 41.9359C213.739 41.9271 213.86 41.8365 213.976 41.8829C214.012 41.8977 213.901 41.9406 213.843 41.9359ZM218.623 41.7516C218.545 41.6749 218.919 41.7107 218.777 41.7684C218.772 41.7701 218.63 41.7542 218.623 41.7516ZM215.267 41.8559C215.197 41.9104 215.152 41.9173 214.95 41.9068C215.247 41.8877 214.972 41.844 215.267 41.8559ZM185.518 42.8743C185.519 42.8764 185.52 42.878 185.52 42.88C185.518 42.878 185.518 42.8762 185.518 42.8743ZM175.299 43.1103C175.214 43.0663 174.98 43.0736 175.05 43.1181C175.057 43.1222 175.265 43.1444 175.299 43.1103ZM210.338 41.9623C210.349 41.9702 210.344 41.9756 210.326 41.9808C210.325 41.9747 210.329 41.9689 210.338 41.9623ZM176.531 43.0533C176.523 43.0873 176.878 43.0949 176.893 43.0907C177.096 43.0288 176.676 43.049 176.531 43.0533ZM166.766 43.213C166.748 43.2169 166.866 43.3018 166.938 43.266C166.993 43.2383 166.833 43.1981 166.766 43.213ZM215.988 41.8229C216.102 41.819 216.261 41.8129 216.293 41.8531C216.214 41.85 215.988 41.8534 215.988 41.8229ZM218.463 41.7013C218.342 41.7553 218.051 41.7708 217.858 41.7735C217.852 41.7094 218.352 41.7208 218.463 41.7013ZM211.103 41.8917C211.095 41.8892 210.815 41.8757 210.854 41.9179C210.912 41.9798 211.182 41.9135 211.103 41.8917ZM167.312 43.2477C167.438 43.2154 167.144 43.1306 167.014 43.2037C166.947 43.2412 167.29 43.2531 167.312 43.2477ZM174.569 43.0631C174.405 43.0907 174.814 43.1282 174.872 43.0822C174.795 43.0799 174.628 43.0533 174.569 43.0631ZM180.193 42.9261C179.667 42.8074 179.957 43.0379 180.05 43.0152C180.063 43.012 180.206 42.9289 180.193 42.9261ZM150.479 43.6192C150.405 43.6389 150.686 43.6978 150.72 43.654C150.743 43.6266 150.526 43.6067 150.479 43.6192ZM188.044 42.7367C188.022 42.738 188 42.7393 187.979 42.7405C187.995 42.7378 188.016 42.7362 188.044 42.7367ZM173.072 42.9153C173.444 43.0918 173.404 42.9514 173.436 42.9516C173.504 42.9524 173.672 42.999 173.796 42.9887C173.655 43.0118 173.497 43.0351 173.349 43.0583C173.478 43.0692 174.476 43.1195 174.501 43.0894C174.53 43.0466 174.212 43.0653 174.203 43.0617C174.19 43.0566 174.138 42.94 174.109 42.936C174.065 42.9296 173.211 42.942 173.072 42.9153ZM179.097 42.9666C179.181 42.9793 179.206 43.0255 179.245 43.0137C179.259 43.0097 179.26 42.9652 179.305 42.953C179.236 42.9576 179.166 42.9621 179.097 42.9666ZM172.423 43.0915C172.32 43.0391 172.78 43.0514 172.795 43.0573C172.875 43.0926 172.507 43.1344 172.423 43.0915ZM176.354 43.0168C176.337 43.0139 175.981 43.0026 175.985 43.0327C176.078 43.0541 176.555 43.0532 176.354 43.0168ZM179.362 42.949C179.488 42.9521 179.728 42.9924 179.699 42.9261C179.699 42.9261 179.699 42.9261 179.699 42.9261C179.587 42.9338 179.474 42.9415 179.362 42.949ZM167.737 43.0974C167.507 42.9957 167.618 43.128 167.82 43.1582C167.881 43.1091 167.775 43.114 167.737 43.0974ZM166.99 43.0339C166.922 43.0161 166.265 43.0514 166.367 43.1056C166.403 43.1249 166.78 43.066 166.798 43.0695C166.825 43.0747 166.705 43.1397 166.908 43.1229C166.896 43.1021 167.012 43.0398 166.99 43.0339ZM167.547 43.0332C167.31 42.9572 167.261 43.1077 167.437 43.1044C167.506 43.1032 167.581 43.0442 167.547 43.0332ZM168.481 43.0265C168.397 43.0141 168.175 42.998 168.026 43.0508C168.228 43.0508 168.432 43.0509 168.638 43.0509C168.661 43.0223 168.554 43.0375 168.48 43.0265C168.481 43.0265 168.481 43.0265 168.481 43.0265ZM219.295 41.334C219.296 41.2889 219.335 41.2861 219.346 41.3059C219.335 41.339 219.286 41.3494 219.295 41.334ZM149.018 42.2901C148.968 42.274 148.931 42.2191 148.819 42.2499C148.934 42.2892 149.047 42.3284 149.16 42.3675C149.245 42.2721 149.073 42.3079 149.018 42.2901ZM148.581 41.9531C148.597 41.9506 148.508 41.8073 148.714 41.9009C148.855 41.9643 148.098 42.0378 147.964 41.9743C148.11 41.9433 148.448 41.9735 148.581 41.9531ZM147.256 41.3384C147.247 41.327 147.535 41.309 147.566 41.3169C147.739 41.3588 147.304 41.4003 147.256 41.3384ZM148.167 41.3599C148.033 41.3332 148.328 41.312 148.419 41.327C148.428 41.3538 148.187 41.3638 148.167 41.3599ZM217.875 39.2517C217.722 39.1616 217.605 39.3798 217.827 39.325C217.838 39.3224 217.881 39.2561 217.875 39.2517ZM147.535 41.1915C147.668 41.2189 147.373 41.2386 147.284 41.2225C147.275 41.1958 147.516 41.1876 147.535 41.1915ZM217.759 39.0236C217.563 38.9635 217.643 39.1968 217.668 39.205C217.768 39.2373 218.106 39.1256 218.178 39.099C217.66 39.1618 217.854 39.0519 217.759 39.0236ZM216.882 39.2123C216.705 39.2463 217.162 39.2725 217.245 39.2017C217.157 39.2095 216.931 39.2027 216.882 39.2123ZM215.822 39.1795C215.725 39.1722 215.436 39.1556 215.389 39.1935C215.494 39.1854 215.781 39.2185 215.822 39.1795ZM215.601 39.0704C215.449 39.0216 215.415 39.1699 215.588 39.1237C215.595 39.1219 215.607 39.0732 215.601 39.0704ZM214.751 39.0284C214.651 38.971 214.54 39.1157 214.7 39.1173C214.748 39.1175 214.761 39.035 214.751 39.0284ZM217.504 38.7819C217.361 38.7644 217.187 38.8763 217.488 38.8714C217.381 38.8929 217.28 38.914 217.174 38.9352C217.568 38.972 217.532 38.8312 217.647 38.8309C217.803 38.8307 217.801 38.9483 217.77 38.9869C217.897 38.9087 218.448 38.8734 218.816 38.8554C218.493 38.8289 218.028 38.8036 217.748 38.7995C217.67 38.7983 217.593 38.8347 217.527 38.8347C217.42 38.8346 217.512 38.7832 217.505 38.7819C217.504 38.7819 217.504 38.7819 217.504 38.7819ZM213.635 39.0427C213.341 38.9807 213.528 39.1215 213.693 39.0933C213.7 39.0912 213.642 39.0442 213.635 39.0427ZM147.151 40.756C147.536 40.8147 147.256 40.897 148.06 40.7695C147.724 40.8582 148.043 40.8312 147.977 40.8664C147.925 40.8942 147.724 40.8731 147.841 40.9273C147.688 40.8691 147.03 40.8879 147.003 40.8777C147.003 40.8777 147.003 40.8777 147.004 40.8777C146.986 40.8719 147.029 40.737 147.151 40.756ZM215.816 38.8037C215.716 38.6305 215.681 38.9078 215.488 38.7657C215.348 38.8847 215.582 38.868 215.84 38.8607L215.813 38.8613C216.014 38.8514 216.224 38.8459 216.277 38.9221C215.257 38.9405 216.958 39.0709 216.235 38.8339C216.824 38.9058 216.425 38.7931 216.514 38.7555C216.61 38.7155 216.943 38.7388 216.923 38.6746C216.923 38.6746 216.922 38.6747 216.922 38.6747C216.716 38.6893 216.52 38.7028 216.314 38.7158C216.521 38.8475 216.102 38.8228 215.96 38.7133C215.911 38.7398 215.861 38.7663 215.811 38.7928L215.839 38.7921C215.832 38.796 215.824 38.7998 215.816 38.8037ZM216.942 38.8886C216.924 38.8866 216.479 38.9267 216.511 38.9532C216.572 38.9691 217.194 38.9173 216.942 38.8886ZM218.984 38.769C218.788 38.7665 218.517 38.7494 218.427 38.8061C218.596 38.7987 218.874 38.82 218.984 38.769ZM210.649 38.9788C210.443 39.0263 211.08 39.0262 210.895 38.9786C210.885 38.9763 210.659 38.9765 210.649 38.9788ZM215.347 38.836C215.138 38.7854 215.239 38.9538 215.393 38.9076C215.402 38.9049 215.357 38.8383 215.347 38.836ZM147.463 40.7344C147.474 40.6931 148.036 40.7183 148.132 40.7166C148.079 40.7562 147.445 40.7825 147.463 40.7344ZM219.366 38.6287C218.896 38.4448 218.448 38.6503 218.397 38.646C218.346 38.6443 218.423 38.5756 218.412 38.5744C218.38 38.571 217.862 38.6031 217.84 38.6093C217.823 38.6138 217.919 38.7005 217.816 38.7351C218.003 38.6693 218.993 38.6601 219.094 38.6647C219.149 38.6602 218.765 38.5446 219.365 38.6286C219.365 38.6287 219.366 38.6287 219.366 38.6287ZM218.271 38.6316C218.404 38.6637 218.034 38.6865 217.951 38.6771C217.755 38.6557 218.249 38.6275 218.271 38.6316ZM217.409 38.6419C217.368 38.6356 217.01 38.6464 216.979 38.6907C217.154 38.7378 217.5 38.6572 217.409 38.6419ZM213.401 38.7528C213.305 38.7598 213.045 38.7312 213.031 38.7688C213.125 38.7618 213.386 38.7905 213.401 38.7528ZM149.363 40.3846C149.204 40.3562 149.57 40.3367 149.673 40.3497C149.679 40.3746 149.378 40.3871 149.363 40.3846ZM215.307 38.4785C215.253 38.4676 214.103 38.512 213.942 38.5322C214.1 38.5579 215.24 38.5442 215.289 38.5299C215.304 38.5256 215.314 38.4802 215.307 38.4785ZM217.713 38.3667C217.818 38.3057 217.887 38.3682 217.902 38.3682C218.031 38.3695 218.314 38.3432 218.255 38.3993C218.008 38.3894 217.512 38.4875 217.713 38.3667ZM213.315 38.5047C212.926 38.5314 213.676 38.5775 213.577 38.5215C213.57 38.5181 213.355 38.5019 213.315 38.5047ZM215.435 38.4607C215.465 38.4446 215.628 38.4371 215.835 38.4342L215.799 38.435C216.167 38.4224 216.678 38.4156 216.793 38.4099C216.636 38.4996 216.505 38.4431 216.287 38.4563C216.23 38.4598 216.246 38.4933 216.24 38.4936C216.14 38.4992 216.213 38.4568 216.151 38.4586C216.132 38.4592 215.974 38.4744 215.8 38.4853L215.836 38.4845C215.606 38.494 215.367 38.4972 215.435 38.4607ZM217.772 38.3252C217.828 38.2895 218.572 38.2388 218.621 38.2489C218.849 38.3007 217.813 38.3311 217.772 38.3252ZM215.329 38.3891C215.45 38.2919 216.024 38.3487 215.633 38.4012C215.595 38.406 215.436 38.3666 215.329 38.3891ZM213.355 38.4131C213.335 38.4106 212.931 38.3981 212.924 38.4286C212.982 38.4394 213.574 38.4405 213.355 38.4131ZM213.565 38.307C213.555 38.3079 213.652 38.3649 213.46 38.3605C213.445 38.36 213.413 38.2946 213.175 38.3226C213.126 38.3284 213.052 38.3731 213.057 38.3758C213.306 38.4749 214.058 38.2654 213.565 38.307ZM217.782 38.2712C217.742 38.2455 217.828 38.1582 217.918 38.1952C217.956 38.2112 217.888 38.2645 217.782 38.2712ZM212.066 38.4083C212.301 38.354 211.56 38.358 211.522 38.3717C211.548 38.4023 212.041 38.4136 212.066 38.4083ZM149.72 39.9915C149.72 39.9915 149.72 39.9915 149.719 39.9915C149.916 39.9989 149.795 40.043 149.805 40.0441C150.231 40.0964 150.111 40.0045 150.177 39.992C150.317 39.9649 150.295 40.08 150.534 40.027C150.14 40.1062 150.499 40.0686 150.512 40.1091C150.556 40.2747 149.992 40.0429 149.793 40.0816C149.765 40.087 149.969 40.136 149.899 40.1526C149.671 40.2064 148.969 39.9625 149.72 39.9915ZM217.983 38.1845C218.061 38.1287 218.837 38.1467 218.634 38.1949C218.585 38.1996 217.842 38.2625 217.983 38.1845ZM185.437 39.1998C185.602 39.1509 185.212 39.1165 185.142 39.1521C185.107 39.1699 185.364 39.2212 185.437 39.1998ZM182.72 39.1188C182.522 39.134 182.319 39.317 182.564 39.2817C182.59 39.2778 182.743 39.1425 182.72 39.1188ZM195.82 38.7515C195.609 38.693 195.624 38.8098 195.778 38.8048C195.833 38.8031 195.827 38.7533 195.82 38.7515ZM187.848 39.0279C187.828 39.0246 187.586 39.0418 187.596 39.0683C187.686 39.0809 187.984 39.0506 187.848 39.0279ZM195.887 38.7334C195.763 38.7572 195.979 38.8373 196.128 38.7514C196.051 38.7598 195.9 38.7309 195.887 38.7334ZM214.894 38.1359C214.791 38.1854 214.499 38.175 214.331 38.1857C214.313 38.1236 214.773 38.1488 214.894 38.1359ZM183.562 39.1606C183.376 39.2112 183.779 39.2327 183.74 39.176C183.735 39.173 183.569 39.1585 183.562 39.1606ZM202.478 38.435C202.341 38.4782 202.784 38.5091 202.659 38.449C202.653 38.4466 202.485 38.4326 202.478 38.435ZM204.393 38.3804C204.29 38.3715 203.841 38.3922 204.017 38.4219C204.043 38.4264 204.388 38.4146 204.393 38.3804ZM150.188 39.9469C150.131 39.8841 150.453 39.8922 150.501 39.9023C150.519 39.9065 150.261 40.0286 150.188 39.9469ZM194.46 38.7738C194.351 38.7846 194.07 38.777 194.022 38.8119C194.153 38.8013 194.497 38.8397 194.46 38.7738ZM184.417 39.1287C184.251 39.0654 183.972 39.0826 184.045 39.1709C184.353 39.1533 184.003 39.0908 184.417 39.1287ZM196.584 38.6447C196.496 38.641 196.431 38.7295 196.441 38.7335C196.536 38.7708 196.672 38.677 196.584 38.6447ZM190.072 38.9062C190.065 38.8691 189.788 38.8965 189.826 38.9191C189.839 38.9267 190.077 38.9362 190.072 38.9062ZM211.259 38.1745C211.13 38.143 211.52 38.1021 211.635 38.1397C211.694 38.1959 211.274 38.1781 211.259 38.1745ZM198.878 38.5797C198.887 38.5235 198.45 38.584 198.627 38.6182C198.671 38.6266 198.874 38.5985 198.878 38.5797ZM203.059 38.2972C202.77 38.3748 203.999 38.3726 203.674 38.3033C203.649 38.2983 203.087 38.2903 203.059 38.2972ZM205.064 38.2634C205.014 38.2578 205.032 38.071 205.243 38.1357C205.271 38.1441 205.144 38.1975 205.167 38.208C205.181 38.2139 205.634 38.2251 205.655 38.2201C205.677 38.2145 205.649 38.1557 205.671 38.1483C205.696 38.14 205.98 38.1834 206.124 38.1795C206.398 38.1721 206.428 38.1216 206.45 38.1208C206.517 38.1184 206.627 38.1504 206.76 38.1465C207.432 38.1262 208.456 38.0575 208.992 38.1502C208.515 38.1193 208.067 38.1756 207.596 38.2021C207.731 38.0947 206.907 38.301 207.388 38.1681C207.165 38.1989 205.232 38.279 205.064 38.2634C205.064 38.2634 205.064 38.2634 205.064 38.2634ZM181.938 39.0916C182.057 39.0245 181.436 39.0573 181.385 39.1321C181.467 39.1401 181.923 39.0994 181.938 39.0916ZM184.81 38.8358C184.868 38.8226 184.918 38.6965 185.225 38.7475C185.225 38.7475 185.225 38.7475 185.226 38.7475C185.316 38.7624 185.215 38.7966 185.232 38.8067C185.238 38.8109 185.519 38.8617 185.288 38.8807C184.937 38.9096 185.251 38.7897 185.064 38.7957C185.041 38.7965 184.688 38.8774 184.71 38.8913C184.712 38.8929 184.818 38.8746 184.836 38.88C184.904 38.9005 184.873 38.9405 184.882 38.942C184.913 38.9456 185.472 38.8576 185.556 38.912C185.583 38.9296 184.663 39.0085 184.627 39C184.604 38.9948 184.609 38.8869 184.585 38.8772C184.573 38.8724 184.205 38.9267 184.156 38.9186C184.142 38.9163 184.131 38.9136 184.123 38.9113C184.18 38.9425 183.845 38.9525 183.854 38.9146C183.86 38.8996 184.09 38.8997 184.099 38.9019C184.102 38.9029 184.106 38.9043 184.109 38.9052C184.059 38.8666 184.841 38.8388 184.67 38.7848C184.895 38.743 184.641 38.8746 184.81 38.8358ZM185.898 38.7267C185.875 38.7389 185.852 38.7512 185.829 38.7634C186.226 38.7199 186.686 38.7559 187.146 38.737C187.262 38.7322 187.126 38.6685 187.279 38.6812C187.401 38.6915 187.539 38.7502 187.473 38.7672C187.457 38.7714 187.208 38.7396 187.082 38.7489C186.715 38.7764 186.81 38.832 186.789 38.8345C186.765 38.8371 186.532 38.8047 186.406 38.8116C186.089 38.8291 185.945 38.8714 185.511 38.841C185.758 38.792 185.618 38.7125 185.898 38.7267ZM200.72 38.3041C200.735 38.2658 200.997 38.2855 201.093 38.2752C201.079 38.3134 200.816 38.2935 200.72 38.3041ZM161.924 39.3479C161.844 39.4112 162.455 39.4113 162.293 39.3642C162.256 39.3538 162 39.3464 161.924 39.3479ZM164.629 39.3204C164.711 39.3016 164.381 39.2651 164.383 39.3125C164.384 39.3277 164.619 39.3229 164.629 39.3204ZM191.058 38.5859C191.073 38.5834 191.296 38.5892 191.303 38.5921C191.452 38.6519 190.72 38.6402 191.058 38.5859ZM167.908 39.1732C167.63 39.2192 168.47 39.2192 168.212 39.1733C168.199 39.171 167.921 39.171 167.908 39.1732ZM169.084 39.1379C169.02 39.1414 168.718 39.1275 168.714 39.1463C168.71 39.1766 169.054 39.1903 169.084 39.1379ZM196.638 38.412C196.604 38.3435 197 38.3887 197.139 38.3779C197.173 38.4464 196.775 38.4007 196.638 38.412ZM194.136 38.4182C195.804 38.3211 195.439 38.4773 194.038 38.4545C194.035 38.4103 194.031 38.4245 194.136 38.4182ZM196.275 38.3762C196.214 38.4216 196.025 38.4123 195.897 38.4114C195.92 38.3802 196.182 38.3859 196.275 38.3762ZM161.212 39.2708C161.313 39.2123 161.77 39.2698 161.69 39.2949C161.669 39.3004 161.177 39.3025 161.212 39.2708ZM191.195 38.5218C191.155 38.456 191.655 38.466 191.694 38.4797C191.85 38.5343 191.236 38.5055 191.195 38.5218ZM198.874 38.2668C198.962 38.2082 199.214 38.2194 199.379 38.21C199.305 38.2595 199.016 38.2584 198.874 38.2668ZM197.84 38.2924C197.846 38.2911 197.928 38.2912 197.996 38.292L197.847 38.2985C197.894 38.2961 197.934 38.2945 197.938 38.2952C198.022 38.3117 197.944 38.3275 197.849 38.3352L197.996 38.3288C197.874 38.3311 197.724 38.3184 197.84 38.2924ZM149.44 39.4915C149.45 39.4896 149.613 39.4899 149.62 39.4917C149.769 39.5394 149.269 39.5386 149.44 39.4915Z" fill="white"/>
<path d="M91.3555 31.2676C91.5015 30.9107 92.0073 30.9107 92.1533 31.2676L93.4492 34.4375C93.477 34.5053 93.4848 34.5743 93.4785 34.6406C93.5244 34.6617 93.5671 34.6902 93.6035 34.7266L93.7812 34.9053C93.8174 34.9414 93.8451 34.9838 93.8662 35.0293C93.933 35.0227 94.003 35.0306 94.0713 35.0586L97.2412 36.3555C97.5975 36.5016 97.5975 37.0061 97.2412 37.1523L94.0713 38.4492C94.0049 38.4764 93.9371 38.484 93.8721 38.4785C93.8541 38.5174 93.8307 38.5541 93.7998 38.585C93.7689 38.6158 93.7322 38.6383 93.6934 38.6562C93.6989 38.7213 93.6922 38.789 93.665 38.8555L92.3682 42.0254C92.2221 42.382 91.7174 42.3819 91.5713 42.0254L90.2744 38.8555C90.2513 38.799 90.2433 38.7415 90.2441 38.6855C90.2226 38.6819 90.2014 38.6768 90.1807 38.6699L89.8955 38.5752C89.8265 38.5522 89.7664 38.5124 89.7188 38.4619C89.6302 38.4877 89.5328 38.4882 89.4375 38.4492L86.2676 37.1533C85.9107 37.0073 85.9107 36.5015 86.2676 36.3555L89.4375 35.0586C89.5052 35.0309 89.5744 35.023 89.6406 35.0293C89.6617 34.9837 89.6904 34.9415 89.7266 34.9053L89.9053 34.7266C89.9415 34.6904 89.9837 34.6617 90.0293 34.6406C90.023 34.5744 90.0309 34.5052 90.0586 34.4375L91.3555 31.2676Z" fill="#DA7128"/>
<path d="M107.602 31.2676C107.748 30.9107 108.254 30.9107 108.4 31.2676L109.696 34.4375C109.724 34.5053 109.731 34.5743 109.725 34.6406C109.771 34.6617 109.814 34.6902 109.85 34.7266L110.028 34.9053C110.064 34.9414 110.092 34.9838 110.113 35.0293C110.179 35.0228 110.249 35.0308 110.317 35.0586L113.487 36.3555C113.844 36.5015 113.844 37.0064 113.487 37.1523L110.317 38.4492C110.251 38.4762 110.183 38.484 110.119 38.4785C110.101 38.5174 110.077 38.5541 110.046 38.585C110.016 38.6158 109.979 38.6383 109.94 38.6562C109.946 38.7213 109.939 38.789 109.912 38.8555L108.615 42.0254C108.469 42.382 107.964 42.3819 107.818 42.0254L106.521 38.8555C106.498 38.799 106.49 38.7415 106.491 38.6855C106.469 38.6819 106.448 38.6768 106.427 38.6699L106.141 38.5752C106.072 38.5522 106.013 38.5123 105.965 38.4619C105.877 38.4877 105.779 38.4882 105.684 38.4492L102.514 37.1533C102.157 37.0073 102.157 36.5015 102.514 36.3555L105.684 35.0586C105.752 35.0309 105.821 35.023 105.887 35.0293C105.908 34.9837 105.937 34.9415 105.973 34.9053L106.152 34.7266C106.188 34.6904 106.23 34.6617 106.276 34.6406C106.27 34.5744 106.278 34.5052 106.305 34.4375L107.602 31.2676Z" fill="#DA7128"/>
<path d="M123.848 31.2676C123.994 30.9107 124.5 30.9107 124.646 31.2676L125.942 34.4375C125.969 34.5053 125.977 34.5744 125.971 34.6406C126.017 34.6617 126.06 34.6902 126.096 34.7266L126.274 34.9053C126.31 34.9414 126.338 34.9838 126.359 35.0293C126.425 35.0227 126.495 35.0307 126.564 35.0586L129.734 36.3555C130.09 36.5016 130.09 37.0061 129.734 37.1523L126.564 38.4492C126.497 38.4764 126.429 38.484 126.365 38.4785C126.347 38.5174 126.323 38.5541 126.292 38.585C126.261 38.6158 126.225 38.6383 126.186 38.6562C126.191 38.7213 126.185 38.789 126.157 38.8555L124.861 42.0254C124.715 42.382 124.21 42.3819 124.064 42.0254L122.767 38.8555C122.744 38.799 122.736 38.7415 122.737 38.6855C122.715 38.6819 122.694 38.6768 122.673 38.6699L122.387 38.5752C122.318 38.5522 122.259 38.5123 122.211 38.4619C122.123 38.4876 122.025 38.4882 121.93 38.4492L118.76 37.1533C118.403 37.0073 118.403 36.5016 118.76 36.3555L121.93 35.0586C121.998 35.0309 122.067 35.0231 122.133 35.0293C122.154 34.9837 122.183 34.9415 122.219 34.9053L122.398 34.7266C122.434 34.6904 122.476 34.6617 122.522 34.6406C122.515 34.5744 122.523 34.5052 122.551 34.4375L123.848 31.2676Z" fill="#DA7128"/>
</svg>